<svg width="154" height="120" viewBox="0 0 154 120" fill="none" xmlns="http://www.w3.org/2000/svg">
<path d="M30 93V47H48V93H30Z" fill="#C03951"/>
<path d="M58.8676 31.6981H46L67 8L117.5 69H58.8676V31.6981Z" fill="#C03951"/>
<path d="M134.453 95.0944C135 92 139.5 83 139.5 83L144.5 95C145.5 98 145.858 100.069 145 103.5C144 107.5 140.942 109.372 140 110C138.5 111 135.585 107.547 134.453 104.151C133.547 101.434 133.906 98.1889 134.453 95.0944Z" fill="#C03951"/>
<path d="M0 117.736H8.93744M8.93744 117.736V32.5322H42.3038M8.93744 117.736H28.0039M152.532 117.736H138.232M138.232 117.736V111.182M138.232 117.736H120.704M138.232 111.182V104.628M138.232 111.182C133.466 109.196 126.792 100.457 138.232 81.3904C143.794 89.136 151.579 105.939 138.232 111.182ZM120.704 117.736V68.878M120.704 117.736H82.2244M131.082 81.3904L120.704 68.878M120.704 68.878L67.3286 4.52832L42.3038 32.5322M120.704 68.878H82.2244M42.3038 32.5322H58.3913V68.878M58.3913 68.878V117.736M58.3913 68.878H82.2244M28.0039 117.736H48.2622M28.0039 117.736V95.0944M58.3913 117.736H82.2244M58.3913 117.736H48.2622M82.2244 117.736V68.878M48.2622 117.736V95.0944M48.2622 95.0944V46.8322H28.0039V95.0944M48.2622 95.0944H28.0039" stroke="#1A2B4C" stroke-width="1.5"/>
</svg>
