<svg width="120" height="120" viewBox="0 0 120 120" fill="none" xmlns="http://www.w3.org/2000/svg">
<path d="M68 41.9999C68 46.9704 64.6422 51 60.5001 51C56.358 51 53 46.9704 53 41.9999C53 37.0294 56.358 33 60.5001 33C64.6422 33 68 37.0294 68 41.9999Z" fill="#C03951"/>
<path d="M21.5 117.692V79.5H34.4444V117.692H21.5Z" fill="#C03951"/>
<path d="M88.5 117.692V79.5H101.111V117.692H88.5Z" fill="#C03951"/>
<path d="M48.5 84.5V72.5L71 72V84.5H48.5Z" fill="#C03951"/>
<path d="M58.8888 2.30762L36 16V27.5L58.8888 14.5L86.5 28.5V16.5L58.8888 2.30762Z" fill="#C03951"/>
<path d="M0 117.692H5.62589M5.62589 117.692V55.8618L34.224 37.3612M5.62589 117.692H19.925M119.55 117.692H115.33M115.33 117.692V55.8618L86.7322 37.3612M115.33 117.692H101.031M19.925 117.692H34.224M19.925 117.692V77.7701H34.224M101.031 117.692H86.7322M101.031 117.692L101.266 77.7701H86.7322M34.224 117.692V77.7701M34.224 117.692H46.8822M34.224 77.7701V65.1119M46.8822 117.692V96.7575H71.2611V117.692M46.8822 117.692H71.2611M86.7322 117.692V77.7701M86.7322 117.692H71.2611M86.7322 77.7701V65.1119M34.224 30.0583V16.4264L58.6029 2.30762L86.7322 16.4264V30.0583M34.224 30.0583L58.6029 16.4264L86.7322 30.0583M34.224 30.0583V65.1119M86.7322 30.0583V65.1119M34.224 65.1119H16.8776M86.7322 65.1119H101.266M46.8822 60.7303H71.2611M46.8822 72.4146H71.2611V86.0466H46.8822V72.4146Z" stroke="#1A2B4C" stroke-width="1.5"/>
<path d="M0 117.692H5.62589M5.62589 117.692V55.8618L34.224 37.3612M5.62589 117.692H19.925M119.55 117.692H115.33M115.33 117.692V55.8618L86.7322 37.3612M115.33 117.692H101.031M19.925 117.692H34.224M19.925 117.692V77.7701H34.224M101.031 117.692H86.7322M101.031 117.692L101.266 77.7701H86.7322M34.224 117.692V77.7701M34.224 117.692H46.8822M34.224 77.7701V65.1119M46.8822 117.692V96.7575H71.2611V117.692M46.8822 117.692H71.2611M86.7322 117.692V77.7701M86.7322 117.692H71.2611M86.7322 77.7701V65.1119M34.224 30.0583V16.4264L58.6029 2.30762L86.7322 16.4264V30.0583M34.224 30.0583L58.6029 16.4264L86.7322 30.0583M34.224 30.0583V65.1119M86.7322 30.0583V65.1119M34.224 65.1119H16.8776M86.7322 65.1119H101.266M46.8822 60.7303H71.2611M46.8822 72.4146H71.2611V86.0466H46.8822V72.4146Z" stroke="#1A2B4C" stroke-width="1.5"/>
<path d="M68.1884 41.7429C68.1884 46.7023 64.3169 50.723 59.5411 50.723C54.7653 50.723 50.8936 46.7023 50.8936 41.7429C50.8936 36.7834 54.7653 32.7629 59.5411 32.7629C64.3169 32.7629 68.1884 36.7834 68.1884 41.7429Z" stroke="#1A2B4C" stroke-width="1.5"/>
</svg>
