<svg width="91" height="120" viewBox="0 0 91 120" fill="none" xmlns="http://www.w3.org/2000/svg">
<path d="M9.5 116V79L29.1694 71.3208V116H9.5Z" fill="#C03951"/>
<path d="M40.7549 39.6227V22L64.5 8.5V55.5L40.7549 39.6227Z" fill="#C03951"/>
<path d="M57.5 117.5V73L80.5 83.5V117.5H57.5Z" fill="#C03951"/>
<path d="M14.3896 87.5148H21.585M14.3896 95.19C17.0759 95.9573 20.3059 95.5097 21.585 95.19M14.3896 103.824H21.585M14.3896 110.54H21.585M65.2371 83.6772H67.156M71.9528 83.6772H74.831M65.2371 90.8727H67.156M71.9528 90.8727H74.831M65.2371 98.5477H67.156M71.9528 98.5477H74.831M65.2371 106.223H67.156M71.9528 106.223H74.831M65.2371 113.898H67.156M71.9528 113.898H74.831" stroke="#1A2B4C" stroke-width="3"/>
<path d="M0 117.736H7.67509M7.67509 117.736H28.5417M7.67509 117.736V79.8401L28.5417 70.726M88.7432 117.736H82.5072M82.5072 117.736V81.759L66.6774 74.8893M82.5072 117.736H57.0835M66.6774 74.8893V57.2946M66.6774 74.8893L57.0835 70.726V73.6042M57.0835 117.736H28.5417M57.0835 117.736V108.142M28.5417 117.736V81.759M57.0835 108.142V98.5481M57.0835 108.142L33.0987 107.662M28.5417 81.759V70.726M28.5417 81.759L45.7402 70.726M66.6774 57.2946L57.0835 51.1399M66.6774 57.2946V51.1399M66.6774 57.2946L58.452 62.5712M57.0835 51.1399L40.2942 40.3696M57.0835 51.1399H66.6774M66.6774 51.1399V43.3834M58.452 62.5712H33.0987M58.452 62.5712L45.7402 70.726M28.5417 70.726V32.8302L40.2942 40.3696M45.7402 70.726H33.0987M57.0835 73.6042H50.8474M57.0835 73.6042V81.759M40.2942 40.3696V19.8785L66.6774 4.52832V19.8785M66.6774 19.8785H53.7256M66.6774 19.8785V28.0334M66.6774 28.0334H47.0099M66.6774 28.0334V35.2286M66.6774 35.2286H47.0099M66.6774 35.2286V43.3834M66.6774 43.3834H65.2383L49.4083 42.9039M33.0987 47.2209H40.2942M33.0987 54.8962H49.4083M57.0835 81.759H41.7333M57.0835 81.759V88.4747M57.0835 88.4747H33.0987M57.0835 88.4747V98.5481M57.0835 98.5481H33.0987" stroke="#1A2B4C" stroke-width="1.5"/>
<path d="M0 117.736H7.67509M7.67509 117.736H28.5417M7.67509 117.736V79.8401L28.5417 70.726M88.7432 117.736H82.5072M82.5072 117.736V81.759L66.6774 74.8893M82.5072 117.736H57.0835M66.6774 74.8893V57.2946M66.6774 74.8893L57.0835 70.726V73.6042M57.0835 117.736H28.5417M57.0835 117.736V108.142M28.5417 117.736V81.759M57.0835 108.142V98.5481M57.0835 108.142L33.0987 107.662M28.5417 81.759V70.726M28.5417 81.759L45.7402 70.726M66.6774 57.2946L57.0835 51.1399M66.6774 57.2946V51.1399M66.6774 57.2946L58.452 62.5712M57.0835 51.1399L40.2942 40.3696M57.0835 51.1399H66.6774M66.6774 51.1399V43.3834M58.452 62.5712H33.0987M58.452 62.5712L45.7402 70.726M28.5417 70.726V32.8302L40.2942 40.3696M45.7402 70.726H33.0987M57.0835 73.6042H50.8474M57.0835 73.6042V81.759M40.2942 40.3696V19.8785L66.6774 4.52832V19.8785M66.6774 19.8785H53.7256M66.6774 19.8785V28.0334M66.6774 28.0334H47.0099M66.6774 28.0334V35.2286M66.6774 35.2286H47.0099M66.6774 35.2286V43.3834M66.6774 43.3834H65.2383L49.4083 42.9039M33.0987 47.2209H40.2942M33.0987 54.8962H49.4083M57.0835 81.759H41.7333M57.0835 81.759V88.4747M57.0835 88.4747H33.0987M57.0835 88.4747V98.5481M57.0835 98.5481H33.0987" stroke="#1A2B4C" stroke-width="1.5"/>
</svg>
