<svg width="120" height="120" viewBox="0 0 120 120" fill="none" xmlns="http://www.w3.org/2000/svg">
<path d="M75 35.5V21H94V35.5H75Z" fill="#C03951"/>
<path d="M27 86V68.5H73V86H27Z" fill="#C03951"/>
<path d="M11.2842 99.1566H2.26367V117.692H115.471V99.1566H106.902M11.2842 99.1566V50.5003H39.2479M11.2842 99.1566H73.0748M106.902 99.1566V65.7922M106.902 99.1566H86.1545M39.2479 50.5003H106.902M39.2479 50.5003V37.9887M73.0748 99.1566V86.645M73.0748 99.1566H86.1545M106.902 50.5003V2.30762H30.2273V20.3799H39.2479M106.902 50.5003V65.7922M39.2479 20.3799V37.9887M39.2479 20.3799H73.0748M106.902 65.7922H86.1545M86.1545 99.1566V65.7922M39.2479 37.9887H73.0748M73.0748 37.9887H93.8221V20.3799H73.0748M73.0748 37.9887V20.3799M86.1545 65.7922H73.0748M73.0748 86.645H24.8151V65.7922H73.0748M73.0748 86.645V65.7922" stroke="#1A2B4C" stroke-width="1.5"/>
</svg>
