<svg width="120" height="120" viewBox="0 0 120 120" fill="none" xmlns="http://www.w3.org/2000/svg">
<path d="M24.9052 90C24.7885 80.77 17.7736 76.0385 14 74.5C10.2264 76.8077 4 82.6154 4 90C4 97.3847 10.3491 101.577 14.5 103.5V104.5C14.5 104.5 15.5 104.5 17 103.5C18.5 102.5 25 97.5 24.9052 90Z" fill="#C03951"/>
<path d="M57.5 31V18.4614H61.1318V31H57.5Z" fill="#C03951"/>
<path d="M74 31V18.5L76.9814 18.4614V31H74Z" fill="#C03951"/>
<path d="M74 56V42H77V56H74Z" fill="#C03951"/>
<path d="M57.5 56V42H61V56H57.5Z" fill="#C03951"/>
<path d="M57.5 81V67H61V81H57.5Z" fill="#C03951"/>
<path d="M74 81V67H77V81H74Z" fill="#C03951"/>
<path d="M59.5 116V94H75V116H59.5Z" fill="#C03951"/>
<path d="M4.27476 117.692H14.4403M14.4403 117.692H44.4749M14.4403 117.692V105.447M92.5304 57.4098H116.558V117.692H92.5304M92.5304 57.4098V117.692M92.5304 57.4098V2.30762H44.4749V34.8036M92.5304 117.692H75.2029M44.4749 34.8036V117.692M44.4749 34.8036H21.3715V66.8289M75.2029 117.692L75.4338 93.2025H57.8751V117.692M75.2029 117.692H57.8751M44.4749 117.692H57.8751M14.4403 105.447V93.2025M14.4403 105.447C22.7577 100.424 34.4017 87.08 14.4403 73.8932C6.12306 76.8759 -8.20127 93.2026 14.4403 105.447ZM29.6887 75.3062H34.3094V72.9512H29.6887V75.3062ZM29.6887 59.7645V63.0611H35.6957V59.7645H29.6887ZM29.6887 47.0487V50.3452H35.6957V47.0487H29.6887ZM56.0269 17.8492V32.4489H61.1097V17.8492H56.0269ZM72.6614 17.8492V32.4489H77.282V17.8492H72.6614ZM56.0269 42.3389H61.1097V57.4098H56.0269V42.3389ZM72.6614 42.3389H77.282V57.4098H72.6614V42.3389ZM72.6614 66.8289H77.282V82.3705H72.6614V66.8289ZM61.1097 66.8289H56.0269V82.3705H61.1097V66.8289ZM98.5374 72.9512V77.1899H105.931V72.9512H98.5374ZM99.4614 86.609V90.8475H105.931V86.609H99.4614ZM99.4614 100.267V104.034H105.931V100.267H99.4614Z" stroke="#1A2B4C" stroke-width="1.5"/>
</svg>
