<svg width="114" height="120" viewBox="0 0 114 120" fill="none" xmlns="http://www.w3.org/2000/svg">
<path d="M58 66V50H110V66H58Z" fill="#C03951"/>
<path d="M14.5 50.5V38H27.1699V50.5H14.5Z" fill="#C03951"/>
<path d="M36 49.8112V38H47.5468V49.8112H36Z" fill="#C03951"/>
<path d="M0 117.736H4.35414M4.35414 117.736V4.52832L55.5152 27.3876V50.2467M4.35414 117.736H29.9348M109.942 117.736H106.132M106.132 117.736V68.2076M106.132 117.736H94.7024M106.132 68.2076H109.942V50.2467H55.5152M106.132 68.2076H55.5152M94.7024 117.736H65.3122M94.7024 117.736V105.49M55.5152 50.2467V68.2076M55.5152 68.2076V117.736M55.5152 117.736H65.3122M55.5152 117.736H29.9348M65.3122 117.736V105.49M29.9348 117.736V105.49M65.3122 105.49V93.2439M65.3122 105.49H94.7024M94.7024 105.49V93.2439M65.3122 93.2439V79.0929H94.7024V93.2439M65.3122 93.2439H94.7024M76.1973 111.205H83.2728M12.5182 75.8273H26.669V60.0435H12.5182V75.8273ZM34.2888 75.8273H46.807V60.0435H34.2888V75.8273ZM34.2888 50.2467H46.807V36.0958H34.2888V50.2467ZM26.669 50.2467H12.5182V36.0958H26.669V50.2467Z" stroke="#1A2B4C" stroke-width="1.5"/>
<path d="M0 117.736H4.35414M4.35414 117.736V4.52832L55.5152 27.3876V50.2467M4.35414 117.736H29.9348M109.942 117.736H106.132M106.132 117.736V68.2076M106.132 117.736H94.7024M106.132 68.2076H109.942V50.2467H55.5152M106.132 68.2076H55.5152M94.7024 117.736H65.3122M94.7024 117.736V105.49M55.5152 50.2467V68.2076M55.5152 68.2076V117.736M55.5152 117.736H65.3122M55.5152 117.736H29.9348M65.3122 117.736V105.49M29.9348 117.736V105.49M65.3122 105.49V93.2439M65.3122 105.49H94.7024M94.7024 105.49V93.2439M65.3122 93.2439V79.0929H94.7024V93.2439M65.3122 93.2439H94.7024M76.1973 111.205H83.2728M12.5182 75.8273H26.669V60.0435H12.5182V75.8273ZM34.2888 75.8273H46.807V60.0435H34.2888V75.8273ZM34.2888 50.2467H46.807V36.0958H34.2888V50.2467ZM26.669 50.2467H12.5182V36.0958H26.669V50.2467Z" stroke="#1A2B4C" stroke-width="1.5"/>
<path d="M39 95.5C39 100.747 35.1944 105 30.5001 105C25.8056 105 22 100.747 22 95.5C22 90.2532 25.8056 86 30.5001 86C35.1944 86 39 90.2532 39 95.5Z" fill="#C03951"/>
<path d="M39.124 95.7882C39.124 101.163 34.7671 105.52 29.3927 105.52C24.0181 105.52 19.6611 101.163 19.6611 95.7882C19.6611 90.4135 24.0181 86.0566 29.3927 86.0566C34.7671 86.0566 39.124 90.4135 39.124 95.7882Z" stroke="#1A2B4C" stroke-width="1.5"/>
</svg>
