<svg width="120" height="120" viewBox="0 0 120 120" fill="none" xmlns="http://www.w3.org/2000/svg">
<path d="M69 116L67.5 81.5H88.8892V116H69Z" fill="#C03951"/>
<path d="M11.5 32.5L22 18H68.5L59.5 32.5H11.5Z" fill="#C03951"/>
<path d="M8 73L16 60H50V73H8Z" fill="#C03951"/>
<path d="M44 57.5L79.5 6.5L115.5 59.5H107L79 17.5L52 57.5H44Z" fill="#C03951"/>
<path d="M94.3915 117.692H115.555V109.908H104.973M94.3915 117.692V109.908H104.973M94.3915 117.692H89.1006M104.973 109.908V103.04M89.1006 117.692V81.0622H65.7319L67.0546 117.692M89.1006 117.692H67.0546M104.973 103.04V87.0145M104.973 103.04C120.847 97.5458 114.527 87.0147 109.383 82.4358C110.117 81.8254 111.587 79.5055 111.587 75.1098C111.587 72.0599 108.327 70.1388 104.973 70.2858M104.973 103.04C89.4532 99.7437 94.8797 87.9304 99.533 82.4358M104.973 77.8571V87.0145M104.973 87.0145C103.368 86.2206 101.07 84.617 99.533 82.4358M99.533 82.4358C98.1152 80.4244 97.3443 77.9217 98.3597 75.1098C99.5368 71.8502 102.285 70.4035 104.973 70.2858M104.973 70.2858V59.5421M67.0546 117.692H50.2997M50.2997 117.692H40.5997M50.2997 117.692V75.1098M74.5501 95.2564V103.04M40.5997 117.692H4.44434V109.908H7.08985M40.5997 117.692V109.908H37.0723M7.08985 109.908H37.0723M7.08985 109.908C7.71929 107.163 9.15207 103.779 11.499 101.729M37.0723 109.908C35.6612 101.85 29.1357 103.498 26.0492 105.33C19.3943 98.6282 14.6321 98.9907 11.499 101.729M11.499 101.729V75.1098M11.499 75.1098H4.44434L14.1445 59.5421H20.3174M11.499 75.1098H50.2997M20.3174 59.5421H40.5997M20.3174 59.5421V34.3589M50.2997 75.1098V59.5421M50.2997 59.5421L78.0774 19.7069L104.973 59.5421M50.2997 59.5421H40.5997M104.973 59.5421H115.555L78.0774 5.05488L69.2592 17.4175M40.5997 59.5421L58.2363 34.3589M69.2592 17.4175H46.7723M69.2592 17.4175L58.2363 34.3589M46.7723 17.4175V11.0072H50.2997V2.30762H28.2539V11.0072H33.9859V17.4175M46.7723 17.4175H33.9859M58.2363 34.3589H20.3174M33.9859 17.4175H20.3174L7.08985 34.3589H20.3174M26.0492 39.3955V51.7582H37.0723V39.3955H26.0492ZM69.2592 48.0952V65.9524H84.6912V48.0952H69.2592ZM24.7266 83.3517H37.0723V95.2564H24.7266V83.3517Z" stroke="#1A2B4C" stroke-width="1.5"/>
</svg>
