<svg width="98" height="120" viewBox="0 0 98 120" fill="none" xmlns="http://www.w3.org/2000/svg">
<path d="M29.4336 97.3586V74.717H45.2826V97.3586H29.4336Z" fill="#C03951"/>
<path d="M17 117.321V106.5H25.5V117.5L17 117.321Z" fill="#C03951"/>
<path d="M75.7637 117.321V106.5H82.7922V117.321H75.7637Z" fill="#C03951"/>
<path d="M54.625 97.3586V74.717H70.1885V97.3586H54.625Z" fill="#C03951"/>
<path d="M5.5 91.5L51 6L95.0944 90.5661L90 92.8302L50.5 18L11.3208 92.8302L5.5 91.5Z" fill="#C03951"/>
<path d="M11.4949 93.7882L4.52832 90.3048L49.8113 4.52832L65.0509 33.6756M11.4949 93.7882L13.3195 90.3048M11.4949 93.7882V105.109H15.8491M65.0509 33.6756V19.3324H74.6298V51.9969M65.0509 33.6756L74.6298 51.9969M13.3195 90.3048L49.8113 20.6386L86.7179 90.3048M13.3195 90.3048H28.0406M15.8491 105.109V117.736H25.4282V113.817M15.8491 105.109H25.4282M88.5632 93.7882L94.659 90.3048L74.6298 51.9969M88.5632 93.7882L86.7179 90.3048M88.5632 93.7882V105.109H82.4674M86.7179 90.3048H70.2759M82.4674 105.109V117.736H74.6298V113.817M82.4674 105.109H74.6298M28.0406 90.3048V73.3236H36.9666M28.0406 90.3048V97.2713H36.9666M36.9666 73.3236V97.2713M36.9666 73.3236H45.8925V90.3048M36.9666 97.2713H45.8925V90.3048M45.8925 90.3048H53.2947M61.7853 97.2713H53.2947V90.3048M61.7853 97.2713H70.2759V90.3048M61.7853 97.2713V73.3236M53.2947 90.3048V73.3236H61.7853M70.2759 90.3048V73.3236H61.7853M25.4282 113.817V105.109M25.4282 113.817L36.9666 105.109M25.4282 105.109H36.9666M36.9666 105.109H44.5864M36.9666 105.109V117.736H44.5864V105.109M44.5864 105.109H55.4717M55.4717 105.109V117.736H61.7853V105.109M55.4717 105.109H61.7853M61.7853 105.109L74.6298 113.817M61.7853 105.109H74.6298M74.6298 113.817V105.109" stroke="#1A2B4C" stroke-width="1.5"/>
<path d="M57 48.9999C57 52.866 53.866 56 50 56C46.134 56 43 52.866 43 48.9999C43 45.134 46.134 42 50 42C53.866 42 57 45.134 57 48.9999Z" fill="#C03951"/>
<path d="M57.2602 48.9406C57.2602 53.2932 53.7317 56.8217 49.3791 56.8217C45.0265 56.8217 41.498 53.2932 41.498 48.9406C41.498 44.5883 45.0265 41.0598 49.3791 41.0598C53.7317 41.0598 57.2602 44.5883 57.2602 48.9406Z" stroke="#1A2B4C" stroke-width="1.5"/>
</svg>
