<svg width="80" height="88" viewBox="0 0 80 88" fill="none" xmlns="http://www.w3.org/2000/svg">
<path d="M1.0634 87.0835C0.858816 87.0494 0.551943 86.8619 0.381459 86.6573C0.0745868 86.3334 0.0575385 85.3446 0.00639319 59.5161C-0.0106553 44.7863 0.00639306 32.5625 0.0575384 32.358C0.108684 32.1534 0.313265 31.8124 0.517847 31.6249C0.875864 31.2839 1.08045 31.2839 11.6846 31.2839H22.4763V0.818326L23.3628 0H70.3654L71.1496 0.784229L71.2348 44.701L72.3941 44.9909C78.3099 46.4229 81.3787 52.3558 79.401 58.5614C78.4975 61.4085 76.6221 64.4602 73.2977 68.4495L71.2519 70.9216L71.1496 86.3334L70.3654 87.1176L35.8934 87.1346C16.9355 87.1517 1.25093 87.1176 1.0634 87.0835ZM22.4763 33.8412H2.52956V84.4751H22.4763V33.8412ZM37.1379 54.6232L37.5641 54.2141L37.9733 53.7879H46.7362C55.3457 53.7879 55.5162 53.7879 55.9594 54.1459L56.4027 54.4869V84.4751H68.6776V71.092L67.2966 69.4724C61.9434 63.1645 59.7783 59.0217 59.7612 54.9813C59.7612 53.0548 60.051 51.7761 60.8523 50.0884C62.0628 47.5481 64.4325 45.6898 67.3648 44.9738L68.5071 44.701V2.64251H25.0335V84.4751H37.1379V54.6232ZM53.8454 56.3451H39.6952V84.4751H53.8454V56.3451ZM71.661 66.4549C74.457 63.0281 76.0254 60.522 76.8779 58.1011C77.4064 56.652 77.5087 53.9413 77.1165 52.4922C76.5198 50.31 74.798 48.4347 72.718 47.7016C71.3542 47.2242 68.0638 47.2754 66.8022 47.8039C63.8869 49.0143 62.3696 51.4352 62.3696 54.896C62.3696 58.2034 63.921 61.3574 68.0809 66.4549C68.9674 67.546 69.7857 68.4495 69.8709 68.4495C69.9562 68.4495 70.7745 67.546 71.661 66.4549Z" fill="white"/>
<path d="M8.53062 76.7521C8.15556 76.36 8.15556 76.2918 8.15556 70.018C8.15556 63.7271 8.15556 63.693 8.53062 63.335C8.87159 63.0111 9.11027 62.994 12.537 62.994C16.1854 62.994 16.1854 62.994 16.5945 63.4202L17.0208 63.8294V76.3089L16.5945 76.718C16.1854 77.1442 16.1854 77.1442 12.537 77.1442C8.95683 77.1442 8.88864 77.1442 8.53062 76.7521ZM14.4635 65.5513H10.7128V74.587H14.4635V65.5513Z" fill="white"/>
<path d="M9.00798 55.3734C8.87159 55.3222 8.61587 55.1688 8.46243 55.0154C8.17261 54.7767 8.15556 54.2482 8.15556 48.4176C8.15556 42.4165 8.17261 42.0415 8.47948 41.6664C8.8034 41.2573 8.82045 41.2573 12.5029 41.2573H16.2024L17.0208 42.212V54.5039L16.0319 55.4927L12.6393 55.4757C10.781 55.4757 9.14437 55.4245 9.00798 55.3734ZM14.4635 43.7293H10.7128V52.9354H14.4635V43.7293Z" fill="white"/>
<path d="M31.7165 46.9173C31.3414 46.5252 31.3415 46.457 31.3415 40.2514V33.9946L31.7677 33.5854C32.1768 33.1592 32.1768 33.1592 35.774 33.1592C39.3713 33.1592 39.3713 33.1592 39.7804 33.5854L40.2066 33.9946V46.5764L39.8145 46.9344C39.4395 47.2924 39.286 47.3095 35.757 47.3095C32.1427 47.3095 32.0745 47.3095 31.7165 46.9173ZM37.6494 35.7165H33.8987V44.7522H37.6494V35.7165Z" fill="white"/>
<path d="M54.05 47.1901C53.9306 47.139 53.7261 46.8832 53.5897 46.6275C53.3851 46.2183 53.334 45.1102 53.334 40.2343C53.334 34.0458 53.3851 33.5343 54.1011 33.2615C54.4762 33.1251 61.2274 33.1251 61.6025 33.2615C62.3185 33.5343 62.3696 34.0458 62.3696 40.2343C62.3696 46.4229 62.3185 46.9344 61.6025 47.2072C61.2615 47.3265 54.3739 47.3265 54.05 47.1901ZM59.8124 35.7165H55.8912V44.7522H59.8124V35.7165Z" fill="white"/>
<path d="M32.0745 23.2711C31.8699 23.1859 31.6313 22.9643 31.529 22.7767C31.3244 22.4187 31.2562 10.3996 31.4437 9.8881C31.6995 9.24026 32.3814 9.12092 35.774 9.12092C39.1667 9.12092 39.8486 9.24026 40.1043 9.8881C40.1555 10.0415 40.2066 12.9568 40.2066 16.3665C40.2066 22.1971 40.1896 22.5722 39.8827 22.9472C39.5588 23.3564 39.5077 23.3564 35.9957 23.3905C34.0521 23.4075 32.2791 23.3564 32.0745 23.2711ZM37.6494 11.6782H33.8987V20.8844H37.6494V11.6782Z" fill="white"/>
<path d="M54.2546 23.2711C53.351 22.8961 53.334 22.8279 53.334 16.2472V10.1609L54.1523 9.20616H57.8347C61.432 9.20616 61.5172 9.20616 61.8923 9.59828L62.2844 9.99039V22.5721L61.8923 22.9643C61.5172 23.3393 61.3979 23.3564 58.0564 23.3905C56.164 23.4075 54.4421 23.3564 54.2546 23.2711ZM59.6419 11.6782H55.8912V20.8844H59.6419V11.6782Z" fill="white"/>
<path d="M68.2172 59.3115C67.8251 59.1581 67.1432 58.7319 66.6999 58.3398C64.1427 56.0894 64.7053 51.9466 67.774 50.4463C69.8198 49.4405 72.2918 50.0201 73.6387 51.8102C74.3888 52.799 74.6445 53.5833 74.6445 54.9301C74.6445 58.084 71.2689 60.3856 68.2172 59.3115ZM71.0814 56.6349C71.7804 56.1576 72.0872 55.612 72.0872 54.7596C72.0872 53.4298 71.2007 52.5262 69.8709 52.5262C68.5412 52.5262 67.6547 53.4298 67.6547 54.7596C67.6547 55.1176 67.7569 55.595 67.8763 55.8336C68.1832 56.4644 69.1379 57.027 69.8709 57.027C70.246 57.027 70.7404 56.8736 71.0814 56.6349Z" fill="white"/>
</svg>
