<svg width="92" height="72" viewBox="0 0 92 72" fill="none" xmlns="http://www.w3.org/2000/svg">
<path d="M43.7908 15.3961C40.7981 16.4172 38.6455 19.2572 38.6455 22.6008C38.6455 23.9365 38.989 25.1917 39.5923 26.2828M43.7908 15.3961C44.5595 15.1337 45.3836 14.9915 46.2409 14.9915C47.0982 14.9915 47.9224 15.1337 48.691 15.3961M43.7908 15.3961L41.8307 1H50.4062L48.691 15.3961M39.5923 26.2828L35.9503 31.1921L29.0899 70.4663L45.2609 30.1474M39.5923 26.2828C40.737 28.353 42.817 29.8321 45.2609 30.1474M48.691 15.3961C51.6837 16.4172 53.8363 19.2572 53.8363 22.6008C53.8363 23.9365 53.4929 25.1917 52.8896 26.2828M52.8896 26.2828L56.7765 31.1921L63.1469 70.4663L47.221 30.1474M52.8896 26.2828C51.7449 28.353 49.6648 29.8321 47.221 30.1474M45.2609 30.1474C45.5818 30.1889 45.9089 30.2102 46.2409 30.2102C46.573 30.2102 46.9002 30.1889 47.221 30.1474M15.8596 62.6542L1.40373 35.1622C0.668689 32.7076 0.423675 27.2092 5.32396 24.8527C10.2242 22.4963 14.3895 25.8346 15.8596 27.7983L18.9631 38.5987M15.8596 62.6542C16.4312 65.4361 19.8287 71 28.8452 71C37.8617 71 58.9003 71 68.2925 71C70.0076 70.6727 74.0258 68.5453 76.3781 62.6542M15.8596 62.6542C16.5946 58.8086 19.4858 52.9338 25.1701 60.1996L18.9631 38.5987M18.9631 38.5987H33.9905M76.3781 62.6542L90.099 35.1622C91.324 32.6258 92.2549 27.0129 86.1784 24.8527C80.102 22.6926 77.1131 25.9164 76.3781 27.7983L73.0295 38.5987M76.3781 62.6542C74.8102 53.6211 69.0275 57.254 66.3324 60.1996L73.0295 38.5987M73.0295 38.5987H58.4919M40.1159 38.5987H51.8766M44.4072 22.6001C44.4072 23.6148 45.2283 24.4374 46.2412 24.4374C47.254 24.4374 48.0751 23.6148 48.0751 22.6001C48.0751 21.5854 47.254 20.7628 46.2412 20.7628C45.2283 20.7628 44.4072 21.5854 44.4072 22.6001Z" stroke="#1A2B4C" stroke-width="1.5"/>
</svg>
