<svg width="50" height="50" viewBox="0 0 50 50" fill="none" xmlns="http://www.w3.org/2000/svg">
<g clip-path="url(#clip0_3509_63)">
<path d="M44.4444 0H5.55556C2.5 0 0 2.5 0 5.55556V44.4444C0 47.5028 2.5 50 5.55556 50H44.4444C47.5 50 50 47.5028 50 44.4444V5.55556C50 2.5 47.5 0 44.4444 0ZM24.9556 40.3417C29.0357 40.3409 32.9485 38.7196 35.8334 35.8342C38.7182 32.9488 40.3389 29.0357 40.3389 24.9556C40.3389 24.0167 40.2194 23.1111 40.0528 22.2222H44.4444V42.2667C44.4444 42.5191 44.3946 42.769 44.2978 43.0021C44.2009 43.2352 44.059 43.4468 43.8801 43.6249C43.7013 43.803 43.489 43.944 43.2555 44.0398C43.022 44.1357 42.7718 44.1844 42.5194 44.1833H7.48056C7.22816 44.1844 6.97802 44.1357 6.74452 44.0398C6.51102 43.944 6.29874 43.803 6.11988 43.6249C5.94101 43.4468 5.79909 43.2352 5.70225 43.0021C5.6054 42.769 5.55555 42.5191 5.55556 42.2667V22.2222H9.85833C9.68889 23.1111 9.56944 24.0167 9.56944 24.9556C9.57018 29.036 11.1915 32.9491 14.0767 35.8344C16.962 38.7197 20.8751 40.3409 24.9556 40.3417ZM15.3417 24.9556C15.3417 23.693 15.5903 22.4429 16.0735 21.2765C16.5566 20.1101 17.2648 19.0502 18.1575 18.1575C19.0502 17.2648 20.1101 16.5566 21.2765 16.0735C22.4429 15.5903 23.693 15.3417 24.9556 15.3417C26.2181 15.3417 27.4682 15.5903 28.6346 16.0735C29.801 16.5566 30.8609 17.2648 31.7536 18.1575C32.6463 19.0502 33.3545 20.1101 33.8376 21.2765C34.3208 22.4429 34.5694 23.693 34.5694 24.9556C34.5694 27.5053 33.5566 29.9506 31.7536 31.7536C29.9506 33.5566 27.5053 34.5694 24.9556 34.5694C22.4058 34.5694 19.9605 33.5566 18.1575 31.7536C16.3546 29.9506 15.3417 27.5053 15.3417 24.9556ZM42.5194 13.8889H38.0333C37.524 13.8874 37.0359 13.6844 36.6757 13.3243C36.3156 12.9641 36.1126 12.476 36.1111 11.9667V7.475C36.1111 6.41389 36.9722 5.55556 38.0306 5.55556H42.5167C43.5833 5.55556 44.4444 6.41389 44.4444 7.475V11.9639C44.4444 13.0222 43.5833 13.8889 42.5194 13.8889Z" fill="#0D1526"/>
</g>
<defs>
<clipPath id="clip0_3509_63">
<rect width="50" height="50" fill="white"/>
</clipPath>
</defs>
</svg>
