<svg width="50" height="48" viewBox="0 0 50 48" fill="none" xmlns="http://www.w3.org/2000/svg">
<g clip-path="url(#clip0_3509_65)">
<path d="M10.4932 5.3357C10.4925 6.75011 9.93905 8.10631 8.95463 9.10595C7.97022 10.1056 6.63545 10.6668 5.24397 10.6661C3.85249 10.6654 2.51827 10.1028 1.53484 9.10218C0.551401 8.10154 -0.000695084 6.74478 6.56772e-07 5.33037C0.000696398 3.91596 0.554128 2.55976 1.53855 1.56013C2.52296 0.560487 3.85773 -0.000706537 5.24921 6.67593e-07C6.6407 0.000707872 7.97491 0.563258 8.95834 1.5639C9.94178 2.56454 10.4939 3.92129 10.4932 5.3357ZM10.6506 14.6152H0.157398V48H10.6506V14.6152ZM27.2298 14.6152H16.7891V48H27.1249V30.481C27.1249 20.7215 39.638 19.8149 39.638 30.481V48H50V26.8545C50 10.4021 31.4795 11.0154 27.1249 19.0949L27.2298 14.6152Z" fill="#0D1526"/>
</g>
<defs>
<clipPath id="clip0_3509_65">
<rect width="50" height="48" fill="white"/>
</clipPath>
</defs>
</svg>
