<svg width="100" height="89" viewBox="0 0 100 89" fill="none" xmlns="http://www.w3.org/2000/svg">
<path d="M64.7738 52.0576C64.4018 56.8943 63.7708 63.3814 63.6137 64.9745L58.2166 68.4298C57.999 68.571 57.8671 68.8094 57.8671 69.0697V85.208C57.8671 86.0288 57.2016 86.6952 56.383 86.6952H50.7586V73.7254C50.7586 73.3062 50.4188 72.9664 50 72.9664C49.5812 72.9664 49.2414 73.3062 49.2414 73.7254V86.6952H43.6171C42.7985 86.6952 42.133 86.0288 42.133 85.208V69.0697C42.133 68.8094 42.001 68.571 41.783 68.4298L36.3864 64.9745C36.2297 63.3814 35.5987 56.8943 35.2267 52.0576C34.8683 47.4019 36.0956 46.7223 38.7844 45.2396C39.0285 45.1028 43.2084 42.7595 45.1135 41.7048C46.5076 42.6536 48.1898 43.2096 50 43.2096C51.8102 43.2096 53.4925 42.6536 54.8865 41.7048C56.7916 42.7595 60.9716 45.1028 61.2156 45.2396C63.9049 46.7223 65.1317 47.4019 64.7738 52.0576ZM42.8161 34.5072C42.8161 30.5487 46.0389 27.3272 50 27.3272C53.9616 27.3272 57.1844 30.5487 57.1844 34.5072C57.1844 38.47 53.9616 41.6915 50 41.6915C46.0389 41.6915 42.8161 38.47 42.8161 34.5072ZM61.9491 43.9113C61.709 43.7789 57.9019 41.643 56.1425 40.6677C57.7223 39.0879 58.7016 36.9122 58.7016 34.5072C58.7016 29.7102 54.7978 25.8092 50 25.8092C45.2022 25.8092 41.2989 29.7102 41.2989 34.5072C41.2989 36.9122 42.2777 39.0879 43.8576 40.6677C42.0981 41.643 38.2906 43.7789 38.051 43.9113C35.2818 45.4382 33.281 46.5458 33.7139 52.1768C34.1402 57.7195 34.905 65.4158 34.9129 65.4908C34.9358 65.7247 35.0634 65.9321 35.2584 66.0556L40.6158 69.4846V85.208C40.6158 86.8629 41.9622 88.2089 43.6171 88.2089H56.383C58.0378 88.2089 59.3843 86.8629 59.3843 85.208V69.4846L64.7416 66.0556C64.9367 65.9321 65.0642 65.7247 65.0872 65.4908C65.0951 65.4158 65.8599 57.7195 66.2862 52.1768C66.7191 46.5458 64.7182 45.4382 61.9491 43.9113Z" fill="#0D1526"/>
<path d="M99.6298 37.87C96.3205 35.8929 93.9755 32.539 91.2601 28.6512C88.3335 24.4589 85.0153 19.7105 79.6902 15.6549C71.5155 9.43263 56.041 0.403655 53.9315 0.0550257C52.8689 -0.121492 51.8001 0.130049 50.9245 0.761107C50.5618 1.02147 50.2573 1.33921 50.004 1.68783C49.1373 0.483088 47.6329 -0.200925 46.068 0.0550257C43.9591 0.403655 28.4845 9.43263 20.3094 15.6549C14.9847 19.7105 11.667 24.4589 8.73987 28.6512C6.02456 32.539 3.67949 35.8929 0.370191 37.87C0.0100914 38.0818 -0.107292 38.5496 0.107179 38.907C0.32165 39.2689 0.787665 39.388 1.14732 39.1718C4.73641 37.0315 7.16841 33.5496 9.98389 29.5162C12.847 25.4209 16.0924 20.774 21.2286 16.8641C29.7872 10.3461 44.8103 1.80257 46.3147 1.55545C47.6832 1.33038 48.9824 2.26152 49.2074 3.62955C49.3667 4.596 48.9444 5.57571 48.1315 6.12733L48.0292 6.19352C45.9749 7.53507 39.0823 12.2526 33.9297 18.2189C33.2695 18.3469 32.6375 18.6337 32.1045 19.0795C32.0162 19.1545 26.1138 23.7087 22.7961 26.3785C22.4696 26.6389 22.4179 27.1155 22.6805 27.4421C22.9431 27.7686 23.4206 27.8216 23.7471 27.5568C27.0525 24.9002 32.9734 20.3327 33.0819 20.2445C33.8321 19.609 34.8899 19.4722 35.7765 19.887C37.0333 20.4784 37.5752 21.9788 36.9852 23.2365C36.7421 23.7528 35.3109 25.0811 33.6534 26.6124C30.8348 29.2249 26.5745 33.1701 22.5075 38.223C18.8664 42.7463 15.8589 43.8187 12.6745 44.9572C10.2015 45.8398 7.64457 46.7533 4.89571 49.3481C4.59122 49.635 4.57754 50.116 4.86527 50.4205C5.01443 50.5794 5.21522 50.6588 5.41689 50.6588C5.60356 50.6588 5.79067 50.5926 5.93763 50.4514C8.4548 48.0728 10.7522 47.252 13.1851 46.387C16.4273 45.2264 19.7799 44.0305 23.6898 39.1718C27.6866 34.2072 31.8975 30.3061 34.6843 27.7289C36.9164 25.6592 38.0051 24.6354 38.3581 23.8808C38.8162 22.9055 38.8674 21.8111 38.5015 20.7961C38.1357 19.7811 37.3969 18.9735 36.4217 18.5146C36.2452 18.4308 36.0647 18.3645 35.8815 18.3072C40.7936 12.9233 46.9533 8.70892 48.8592 7.46445L48.9819 7.38059C49.3884 7.10699 49.7246 6.75838 50 6.37004C50.2749 6.75838 50.6116 7.10699 51.0176 7.38059L51.1408 7.46445C53.0467 8.70892 59.2064 12.9233 64.1185 18.3072C63.9349 18.3645 63.7544 18.4308 63.5783 18.5146C61.5647 19.459 60.6962 21.8685 61.6419 23.8808C61.995 24.6354 63.0836 25.6592 65.3157 27.7289C68.1025 30.3061 72.3134 34.2072 76.3107 39.1718C80.2206 44.0305 83.5727 45.2264 86.8154 46.387C89.2478 47.252 91.5457 48.0728 94.0628 50.4514C94.2093 50.5926 94.3964 50.6588 94.5836 50.6588C94.7848 50.6588 94.986 50.5794 95.1352 50.4205C95.4229 50.116 95.4092 49.635 95.1043 49.3481C92.3559 46.7533 89.7986 45.8398 87.3255 44.9572C84.1411 43.8187 81.1336 42.7463 77.4925 38.223C73.4255 33.1701 69.1656 29.2249 66.3466 26.6124C64.6895 25.0811 63.2579 23.7528 63.0148 23.2365C62.4248 21.9788 62.9667 20.4784 64.2235 19.887C65.1101 19.4722 66.1679 19.609 66.9181 20.2445C67.0266 20.3327 72.948 24.9002 76.2529 27.5568C76.5799 27.8216 77.0574 27.7686 77.3195 27.4421C77.5821 27.1155 77.5309 26.6389 77.2043 26.3785C73.8871 23.7087 67.9838 19.1545 67.8956 19.0795C67.3625 18.6337 66.7305 18.3469 66.0699 18.2189C60.9177 12.2526 54.0251 7.53507 51.9708 6.19352L51.868 6.12733C51.0556 5.57571 50.6333 4.596 50.7926 3.62955C51.0176 2.26152 52.3168 1.33038 53.6853 1.55545C55.1897 1.80257 70.2128 10.3461 78.7714 16.8641C83.9077 20.774 87.153 25.4209 90.0166 29.5206C92.832 33.5496 95.2636 37.0315 98.8527 39.1718C99.2128 39.388 99.6779 39.2689 99.8928 38.907C100.107 38.5496 99.9899 38.0818 99.6298 37.87Z" fill="#0D1526"/>
</svg>
