<svg width="100" height="71" viewBox="0 0 100 71" fill="none" xmlns="http://www.w3.org/2000/svg">
<path d="M58.2497 65.4858C58.2497 67.5888 56.5388 69.3016 54.4354 69.3016C52.333 69.3016 50.6216 67.5888 50.6216 65.4858V46.0076C50.6216 45.6602 50.3433 45.3843 49.9998 45.3843C49.6563 45.3843 49.3779 45.6602 49.3779 46.0076V65.4858C49.3779 67.5888 47.667 69.3016 45.5641 69.3016C43.4612 69.3016 41.7503 67.5888 41.7503 65.4858V28.0708C41.7503 27.7282 41.472 27.4475 41.1284 27.4475C40.7849 27.4475 40.5066 27.7282 40.5066 28.0708V40.2364C40.5066 41.7827 39.2501 43.0387 37.7057 43.0387C36.1613 43.0387 34.9048 41.7827 34.9048 40.2364V26.2771C34.9048 22.5851 37.0292 19.759 41.3997 17.6466C42.8884 16.9234 44.0017 16.3715 44.839 15.948C46.2906 16.9995 48.0734 17.6228 49.9998 17.6228C51.9262 17.6228 53.7089 16.9995 55.1605 15.948C55.9983 16.3715 57.1117 16.9234 58.6009 17.6466C62.9709 19.759 65.0952 22.5851 65.0952 26.2771V40.2364C65.0952 41.7827 63.8387 43.0387 62.2943 43.0387C60.7499 43.0387 59.4934 41.7827 59.4934 40.2364V28.0708C59.4934 27.7282 59.2151 27.4475 58.8716 27.4475C58.528 27.4475 58.2497 27.7282 58.2497 28.0708V65.4858ZM42.4316 8.81138C42.4316 4.63882 45.8267 1.24175 49.9998 1.24175C54.1728 1.24175 57.568 4.63882 57.568 8.81138C57.568 12.9839 54.1728 16.381 49.9998 16.381C45.8267 16.381 42.4316 12.9839 42.4316 8.81138ZM62.2943 44.2805C64.5247 44.2805 66.3389 42.4678 66.3389 40.2364V26.2771C66.3389 22.1188 63.9176 18.836 59.1428 16.5285C57.9181 15.9338 56.9542 15.458 56.191 15.0774C57.8077 13.4788 58.8121 11.2616 58.8121 8.81138C58.8121 3.95371 54.8589 0 49.9998 0C45.1411 0 41.1879 3.95371 41.1879 8.81138C41.1879 11.2616 42.1923 13.4788 43.809 15.0774C43.0458 15.458 42.0819 15.9338 40.8577 16.5285C36.0819 18.836 33.6611 22.1188 33.6611 26.2771V40.2364C33.6611 42.4678 35.4753 44.2805 37.7057 44.2805C38.7928 44.2805 39.7787 43.8476 40.5066 43.1482V65.4858C40.5066 68.2739 42.7751 70.5434 45.5641 70.5434C47.4743 70.5434 49.1396 69.4776 49.9998 67.9123C50.86 69.4776 52.5252 70.5434 54.4354 70.5434C57.2244 70.5434 59.4934 68.2739 59.4934 65.4858V43.1482C60.2209 43.8476 61.2072 44.2805 62.2943 44.2805Z" fill="#0D1526"/>
<path d="M11.5628 11.2141C14.3632 11.2141 16.6417 13.493 16.6417 16.2953C16.6417 19.0929 14.3632 21.3719 11.5628 21.3719C8.76191 21.3719 6.4834 19.0929 6.4834 16.2953C6.4834 13.493 8.76191 11.2141 11.5628 11.2141ZM17.7545 55.2138C17.4125 55.1948 17.1256 55.4708 17.1156 55.8181C17.0775 57.1598 15.9951 58.2112 14.6506 58.2112C13.2903 58.2112 12.1846 57.1027 12.1846 55.7467V42.1823C12.1846 41.8398 11.9063 41.5638 11.5628 41.5638C11.2188 41.5638 10.9405 41.8398 10.9405 42.1823V55.7467C10.9405 57.1027 9.83476 58.2112 8.475 58.2112C7.11475 58.2112 6.00907 57.1027 6.00907 55.7467V29.698C6.00907 29.3554 5.73072 29.0795 5.38721 29.0795C5.04323 29.0795 4.76538 29.3554 4.76538 29.698V38.1715C4.76538 39.1421 3.97511 39.9319 3.00452 39.9319C2.03394 39.9319 1.24415 39.1421 1.24415 38.1715V28.4514C1.24415 25.9584 2.68766 24.0505 5.65793 22.6136C6.63993 22.1379 7.38453 21.7668 7.95594 21.4813C8.97981 22.195 10.2221 22.6184 11.5628 22.6184C15.0493 22.6184 17.8859 19.778 17.8859 16.2953C17.8859 12.8079 15.0493 9.97226 11.5628 9.97226C8.07631 9.97226 5.23972 12.8079 5.23972 16.2953C5.23972 17.9558 5.88964 19.4688 6.94301 20.5964C6.45106 20.8438 5.85205 21.1388 5.1165 21.4908C1.72136 23.137 0 25.4778 0 28.4514V38.1715C0 39.8272 1.34787 41.1737 3.00452 41.1737C3.66252 41.1737 4.2701 40.9596 4.76538 40.598V55.7467C4.76538 57.7926 6.42963 59.453 8.475 59.453C9.76197 59.453 10.8972 58.7964 11.5628 57.7973C12.2284 58.7964 13.3631 59.453 14.6506 59.453C16.6731 59.453 18.3017 57.8734 18.3588 55.8514C18.3683 55.5088 18.098 55.2234 17.7545 55.2138Z" fill="#0D1526"/>
<path d="M83.3578 16.2953C83.3578 13.493 85.6363 11.2141 88.4367 11.2141C91.2376 11.2141 93.5166 13.493 93.5166 16.2953C93.5166 19.0929 91.2376 21.3719 88.4367 21.3719C85.6363 21.3719 83.3578 19.0929 83.3578 16.2953ZM94.884 21.4908C94.1479 21.1388 93.5485 20.8438 93.057 20.5964C94.1104 19.4688 94.7603 17.9558 94.7603 16.2953C94.7603 12.8079 91.9237 9.97226 88.4367 9.97226C84.9502 9.97226 82.1142 12.8079 82.1142 16.2953C82.1142 19.778 84.9502 22.6184 88.4367 22.6184C89.7775 22.6184 91.0197 22.195 92.0441 21.4813C92.6155 21.7668 93.3596 22.1379 94.3416 22.6136C97.3123 24.0505 98.7558 25.9584 98.7558 28.4514V38.1715C98.7558 39.1421 97.966 39.9319 96.9954 39.9319C96.0249 39.9319 95.2346 39.1421 95.2346 38.1715V29.698C95.2346 29.3554 94.9563 29.0795 94.6128 29.0795C94.2693 29.0795 93.991 29.3554 93.991 29.698V55.7467C93.991 57.1027 92.8843 58.2112 91.525 58.2112C90.1652 58.2112 89.0586 57.1027 89.0586 55.7467V42.1823C89.0586 41.8398 88.7802 41.5638 88.4367 41.5638C88.0932 41.5638 87.8149 41.8398 87.8149 42.1823V55.7467C87.8149 57.1027 86.7087 58.2112 85.3494 58.2112C84.0044 58.2112 82.9215 57.1598 82.8839 55.8181C82.8744 55.4708 82.5752 55.1996 82.245 55.2138C81.9015 55.2234 81.6312 55.5088 81.6407 55.8514C81.6978 57.8734 83.3264 59.453 85.3494 59.453C86.6364 59.453 87.7711 58.7964 88.4367 57.7973C89.1023 58.7964 90.2375 59.453 91.525 59.453C93.5704 59.453 95.2346 57.7926 95.2346 55.7467V40.598C95.7299 40.9596 96.3374 41.1737 96.9954 41.1737C98.6521 41.1737 100 39.8272 100 38.1715V28.4514C100 25.4778 98.2781 23.137 94.884 21.4908Z" fill="#0D1526"/>
<path d="M29.3106 5.93299C32.7719 5.93299 35.588 8.74959 35.588 12.2132C35.588 15.6721 32.7719 18.4887 29.3106 18.4887C25.8494 18.4887 23.0332 15.6721 23.0332 12.2132C23.0332 8.74959 25.8494 5.93299 29.3106 5.93299ZM37.5744 51.6598H35.6228C35.2793 51.6598 35.0009 51.9358 35.0009 52.2783V60.9755C35.0009 62.3743 33.8643 63.5114 32.4669 63.5114C31.0696 63.5114 29.9325 62.3743 29.9325 60.9755V52.2783C29.9325 51.9358 29.6546 51.6598 29.3106 51.6598C28.9671 51.6598 28.6888 51.9358 28.6888 52.2783V60.9755C28.6888 62.3743 27.5517 63.5114 26.1548 63.5114C24.7574 63.5114 23.6203 62.3743 23.6203 60.9755V52.2783C23.6203 51.9358 23.342 51.6598 22.9985 51.6598H18.0847C18.0847 51.6598 23.5409 28.3754 23.6037 28.1042C23.6817 27.7711 23.4743 27.4381 23.1398 27.3572C22.8077 27.2811 22.4713 27.4856 22.3924 27.8234C22.1421 28.8892 19.9459 38.2762 19.9012 38.4903C19.6904 39.5038 18.9577 40.1841 18.0347 40.2174C16.85 40.2555 15.8699 39.3372 15.8276 38.162C15.8105 37.672 15.9741 36.8204 16.0384 36.5349C16.8148 33.1093 17.9738 28.4657 18.5357 26.2629C19.7066 21.6717 20.888 20.035 25.0072 18.3698C26.2281 19.2262 27.7106 19.7305 29.3106 19.7305C33.4575 19.7305 36.8317 16.3573 36.8317 12.2132C36.8317 8.06447 33.4575 4.69119 29.3106 4.69119C25.1638 4.69119 21.7895 8.06447 21.7895 12.2132C21.7895 14.2591 22.6141 16.1146 23.9458 17.4706C19.9064 19.2357 18.5443 21.1959 17.3311 25.9536C16.7673 28.166 15.6049 32.8191 14.8251 36.2637C14.7975 36.3827 14.5587 37.4722 14.5849 38.2049C14.6496 40.0271 16.1502 41.4592 17.9572 41.4592C17.9976 41.4592 18.0381 41.4592 18.0785 41.4592C18.5034 41.4449 18.9045 41.3403 19.2713 41.1737L16.6945 52.1356C16.6507 52.3212 16.6945 52.5163 16.812 52.6637C16.93 52.816 17.1098 52.9016 17.2997 52.9016H22.3767V60.9755C22.3767 63.0594 24.0714 64.7532 26.1548 64.7532C27.4732 64.7532 28.6345 64.0728 29.3106 63.0452C29.9867 64.0728 31.1481 64.7532 32.4669 64.7532C34.5504 64.7532 36.2451 63.0594 36.2451 60.9755V52.9016H37.5744C37.9179 52.9016 38.1967 52.6209 38.1967 52.2783C38.1967 51.9358 37.9179 51.6598 37.5744 51.6598Z" fill="#0D1526"/>
<path d="M64.4115 12.2132C64.4115 8.74959 67.2276 5.93299 70.6889 5.93299C74.1501 5.93299 76.9658 8.74959 76.9658 12.2132C76.9658 15.6721 74.1501 18.4887 70.6889 18.4887C67.2276 18.4887 64.4115 15.6721 64.4115 12.2132ZM83.1875 52.6637C83.305 52.5163 83.3488 52.3212 83.305 52.1356L80.7292 41.1737C81.0951 41.3403 81.4961 41.4449 81.9205 41.4592C81.9619 41.4592 82.0028 41.4592 82.0437 41.4592C82.9001 41.4592 83.7118 41.1404 84.3417 40.5552C85.0016 39.9415 85.3823 39.1041 85.4147 38.2049C85.4408 37.4722 85.2019 36.3827 85.1743 36.2637C84.2223 32.0579 82.825 26.5674 82.669 25.9536C81.4552 21.1959 80.0931 19.2357 76.0538 17.4706C77.3855 16.1146 78.2099 14.2591 78.2099 12.2132C78.2099 8.06447 74.8357 4.69119 70.6889 4.69119C66.542 4.69119 63.1678 8.06447 63.1678 12.2132C63.1678 16.3573 66.542 19.7305 70.6889 19.7305C72.2894 19.7305 73.7714 19.2262 74.9923 18.3698C79.1115 20.035 80.2929 21.6717 81.4643 26.2629C81.6194 26.8719 83.0129 32.3481 83.9616 36.5349C84.0254 36.8204 84.189 37.672 84.1714 38.162C84.13 39.3372 83.1442 40.2697 81.9648 40.2174C81.0437 40.1841 80.3119 39.5085 80.0993 38.4903L80.0945 38.4713C80.0046 38.0669 77.8545 28.8797 77.6071 27.8234C77.5286 27.4856 77.1918 27.2811 76.8597 27.3572C76.5252 27.4381 76.3178 27.7711 76.3958 28.1042C76.4591 28.3754 81.9148 51.6598 81.9148 51.6598H77.001C76.6575 51.6598 76.3792 51.9358 76.3792 52.2783V60.9755C76.3792 62.3743 75.2421 63.5114 73.8447 63.5114C72.4478 63.5114 71.3107 62.3743 71.3107 60.9755V52.2783C71.3107 51.9358 71.0324 51.6598 70.6889 51.6598C70.3454 51.6598 70.0671 51.9358 70.0671 52.2783V60.9755C70.0671 62.3743 68.9299 63.5114 67.5326 63.5114C66.1357 63.5114 64.9986 62.3743 64.9986 60.9755V52.2783C64.9986 51.9358 64.7203 51.6598 64.3763 51.6598H62.4256C62.0816 51.6598 61.8033 51.9358 61.8033 52.2783C61.8033 52.6209 62.0816 52.9016 62.4256 52.9016H63.7544V60.9755C63.7544 63.0594 65.4492 64.7532 67.5326 64.7532C68.8514 64.7532 70.0128 64.0728 70.6889 63.0452C71.3649 64.0728 72.5263 64.7532 73.8447 64.7532C75.9281 64.7532 77.6228 63.0594 77.6228 60.9755V52.9016H82.6998C82.8897 52.9016 83.0695 52.816 83.1875 52.6637Z" fill="#0D1526"/>
</svg>
