<svg width="50" height="50" viewBox="0 0 50 50" fill="none" xmlns="http://www.w3.org/2000/svg">
<g clip-path="url(#clip0_3509_59)">
<path d="M16.1028 2.40444C15.3509 0.588114 13.3686 -0.378641 11.4741 0.138915L2.88073 2.48256C1.18159 2.95129 0 4.49419 0 6.25193C0 30.411 19.589 50 43.7481 50C45.5058 50 47.0487 48.8184 47.5174 47.1193L49.8611 38.5259C50.3786 36.6314 49.4119 34.6491 47.5956 33.8972L38.221 29.9911C36.6292 29.3271 34.7836 29.786 33.6997 31.1239L29.7545 35.9381C22.8799 32.6863 17.3137 27.1201 14.0619 20.2455L18.8761 16.3101C20.214 15.2164 20.6729 13.3805 20.0089 11.7888L16.1028 2.41421V2.40444Z" fill="#0D1526"/>
</g>
<defs>
<clipPath id="clip0_3509_59">
<rect width="50" height="50" fill="white"/>
</clipPath>
</defs>
</svg>
