<svg width="90" height="80" viewBox="0 0 90 80" fill="none" xmlns="http://www.w3.org/2000/svg">
<mask id="path-1-inside-1_3494_3" fill="white">
<path d="M41.8825 79.7341C39.8227 79.2091 37.967 77.6701 36.9649 75.6786L36.3711 74.5199L36.2598 66.4451H35.1093C32.7897 66.427 31.7876 66.0287 30.934 64.7975C30.5629 64.2725 30.5072 64.0009 30.5629 63.0776C30.6928 61.086 31.8804 60.1084 34.1258 60.1084H35.3505L35.2392 59.6195C35.1649 59.3298 34.9237 58.5151 34.7196 57.7909L34.3299 56.4512L33.2165 56.0166C28.132 53.9889 21.3588 49.9696 7.05155 40.4283C1.13196 36.4814 0 35.6667 0 35.3046C0 34.8339 0.797939 34.2726 12.8969 26.3427C21.7299 20.5491 24.8845 18.6481 29.5052 16.385C39.2474 11.569 45.3897 10.8267 53.6474 13.4882C59.1588 15.2625 64.967 18.3946 75.8969 25.5279C87.7732 33.2769 90 34.8158 90 35.3046C90 35.6848 89.3876 36.1736 85.8247 38.5273C73.1505 46.9823 67.4907 50.5671 63 53.0112C60.4577 54.3872 56.3567 56.3063 55.9485 56.3063C55.8557 56.3063 55.7072 56.4512 55.6144 56.6322C55.4289 56.9581 54.6495 59.6376 54.6495 59.9273C54.6495 60.0359 55.1876 60.1084 55.8557 60.1084C57.3031 60.1084 58.3052 60.5248 58.9546 61.4119C59.2887 61.9008 59.3814 62.2447 59.3814 63.2043C59.3814 64.2182 59.3072 64.4897 58.8619 65.051C58.101 66.0287 57.4515 66.2821 55.466 66.3908L53.7217 66.4994V70.0661C53.7217 73.8862 53.5546 74.8639 52.6825 76.3123C51.699 77.9417 49.6763 79.4082 47.7835 79.8246C46.5773 80.0962 43.033 80.0419 41.8825 79.7341ZM48.7485 78.1771C50.0289 77.5977 51.2722 76.4209 51.8289 75.2803C52.0515 74.8096 52.2371 74.375 52.2371 74.3207C52.2371 74.2664 48.9897 74.2302 45.0186 74.2302H37.7814L37.9856 74.7915C38.3196 75.7329 39.3216 77.0003 40.2495 77.6158C41.6598 78.5754 42.532 78.7564 45.2784 78.7021C47.4495 78.6659 47.8021 78.6116 48.7485 78.1771ZM52.4227 66.4451H37.5773V72.9629H52.4227V66.4451ZM57.6371 64.4717C58.3979 63.7293 58.3979 62.6431 57.6371 61.9007L57.099 61.3757H32.901L32.3629 61.9007C31.9361 62.3172 31.8247 62.5887 31.8247 63.1862C31.8247 63.7837 31.9361 64.0552 32.3629 64.4717L32.901 64.9967H57.099L57.6371 64.4717ZM54.7794 54.4053L56.3381 48.7928L51.1237 39.3782C48.2474 34.2002 45.8351 29.8912 45.7423 29.8007C45.6124 29.674 45.5567 31.9371 45.5567 35.9926C45.5567 41.6051 45.5938 42.3655 45.8351 42.3655C46.3732 42.3655 47.5237 43.0535 48.2103 43.7958C49.3052 44.9907 49.565 46.6745 48.8784 48.1591C48.3773 49.2454 47.8763 49.7523 46.7629 50.2593C44.1464 51.4723 41.1959 49.8972 40.6577 47.0185C40.3423 45.3166 41.7897 43.0354 43.4969 42.5285L44.2577 42.3112V29.6016L43.7196 30.5068C41.7711 33.8743 33.6804 48.6841 33.6804 48.9014C33.6804 49.0462 34.1072 50.6576 34.6268 52.5043C35.7773 56.6684 36.6495 59.873 36.6495 60.0178C36.6495 60.0721 40.3794 60.0903 44.9443 60.0721L53.2392 60.0178L54.7794 54.4053ZM33.1423 51.8163C32.2887 48.7385 32.2701 48.5755 32.6969 47.8332L33.0124 47.2901L31.9918 46.1857C29.2268 43.2165 27.4825 38.2014 27.8351 34.2183C28.4845 26.8677 33.5691 20.8931 40.8247 18.9921C42.7732 18.467 46.8557 18.4127 48.7485 18.8834C55.4103 20.5129 60.1794 25.1477 61.8309 31.6474C62.3134 33.5303 62.2577 37.3143 61.7381 39.2877C61.1443 41.4422 59.734 44.176 58.268 45.9322C57.0433 47.4168 57.0433 47.4168 57.3402 47.9599C57.4887 48.2677 57.6186 48.6117 57.6186 48.7385C57.6186 48.8652 57.2845 50.2593 56.8577 51.8344C56.4309 53.3914 56.1155 54.7312 56.1897 54.7855C56.5052 55.1114 63.7423 51.2913 69.2165 47.8875C73.3732 45.2985 88.2371 35.4676 88.2371 35.2865C88.2371 35.2141 85.7876 33.5122 82.7814 31.5207C70.3113 23.2467 65.4866 20.2413 60.866 17.8877C46.0763 10.4284 38.3196 11.5509 18.6495 24.0796C13.899 27.1031 1.87423 35.1055 1.81856 35.2684C1.78144 35.4132 4.47216 37.2237 14.1031 43.5242C20.8577 47.96 23.7711 49.7523 27.6309 51.8525C30.6186 53.482 33.7546 54.9122 33.8289 54.695C33.866 54.6045 33.5505 53.3009 33.1423 51.8163ZM46.633 48.9376C47.8763 48.0324 48.3031 46.4753 47.6907 45.1899C46.3732 42.4742 42.0309 43.3975 42.0309 46.3848C42.0309 47.6884 42.7361 48.7566 43.8866 49.2273C44.5732 49.517 46.0577 49.354 46.633 48.9376ZM57.7299 44.6468C63.7794 36.8073 60.9217 25.4736 51.8474 21.2733C49.5093 20.2051 47.8763 19.8611 45 19.8611C41.9938 19.8611 40.3979 20.2232 37.8557 21.4543C34.7381 22.9752 32.3443 25.3107 30.8041 28.3342C29.5423 30.8146 29.1711 32.3716 29.1711 35.3046C29.1711 38.1652 29.5423 39.7584 30.7113 42.0758C31.5278 43.7415 33.2351 46.0408 33.5691 45.9322C33.6804 45.896 36.1856 41.4965 39.1546 36.1555C42.1052 30.8146 44.6474 26.397 44.7959 26.3427C44.9443 26.2884 45.2041 26.3789 45.3897 26.5599C45.5567 26.741 48.099 31.231 51.0309 36.5357C55.4289 44.4838 56.4124 46.1314 56.6165 45.9684C56.7649 45.8417 57.266 45.2623 57.7299 44.6468Z"/>
<path d="M26.7402 10.1026C26.5918 9.86719 25.9608 8.8352 25.3485 7.80322C24.4392 6.28241 24.2722 5.84789 24.4206 5.57632C24.8289 4.83402 25.3299 5.26853 26.666 7.49544C27.4082 8.74468 27.9278 9.81287 27.8907 10.0301C27.8165 10.5733 27.0928 10.6276 26.7402 10.1026Z"/>
<path d="M62.1278 10.1931C61.9979 9.88529 62.4247 9.05246 63.9464 6.48156C64.7258 5.19611 65.2268 4.92454 65.5794 5.59442C65.7278 5.866 65.5237 6.33672 64.5588 7.98427C63.8907 9.10678 63.2598 10.1388 63.1485 10.2655C62.8701 10.5914 62.2763 10.5552 62.1278 10.1931Z"/>
<path d="M44.4433 5.63063C44.3505 5.43148 44.2577 4.23655 44.2577 2.98731C44.2577 0.597463 44.4062 0 45 0C45.5938 0 45.7423 0.597463 45.7423 2.98731C45.7423 5.37716 45.5938 5.97463 45 5.97463C44.7959 5.97463 44.5546 5.81168 44.4433 5.63063Z"/>
</mask>
<path d="M41.8825 79.7341C39.8227 79.2091 37.967 77.6701 36.9649 75.6786L36.3711 74.5199L36.2598 66.4451H35.1093C32.7897 66.427 31.7876 66.0287 30.934 64.7975C30.5629 64.2725 30.5072 64.0009 30.5629 63.0776C30.6928 61.086 31.8804 60.1084 34.1258 60.1084H35.3505L35.2392 59.6195C35.1649 59.3298 34.9237 58.5151 34.7196 57.7909L34.3299 56.4512L33.2165 56.0166C28.132 53.9889 21.3588 49.9696 7.05155 40.4283C1.13196 36.4814 0 35.6667 0 35.3046C0 34.8339 0.797939 34.2726 12.8969 26.3427C21.7299 20.5491 24.8845 18.6481 29.5052 16.385C39.2474 11.569 45.3897 10.8267 53.6474 13.4882C59.1588 15.2625 64.967 18.3946 75.8969 25.5279C87.7732 33.2769 90 34.8158 90 35.3046C90 35.6848 89.3876 36.1736 85.8247 38.5273C73.1505 46.9823 67.4907 50.5671 63 53.0112C60.4577 54.3872 56.3567 56.3063 55.9485 56.3063C55.8557 56.3063 55.7072 56.4512 55.6144 56.6322C55.4289 56.9581 54.6495 59.6376 54.6495 59.9273C54.6495 60.0359 55.1876 60.1084 55.8557 60.1084C57.3031 60.1084 58.3052 60.5248 58.9546 61.4119C59.2887 61.9008 59.3814 62.2447 59.3814 63.2043C59.3814 64.2182 59.3072 64.4897 58.8619 65.051C58.101 66.0287 57.4515 66.2821 55.466 66.3908L53.7217 66.4994V70.0661C53.7217 73.8862 53.5546 74.8639 52.6825 76.3123C51.699 77.9417 49.6763 79.4082 47.7835 79.8246C46.5773 80.0962 43.033 80.0419 41.8825 79.7341ZM48.7485 78.1771C50.0289 77.5977 51.2722 76.4209 51.8289 75.2803C52.0515 74.8096 52.2371 74.375 52.2371 74.3207C52.2371 74.2664 48.9897 74.2302 45.0186 74.2302H37.7814L37.9856 74.7915C38.3196 75.7329 39.3216 77.0003 40.2495 77.6158C41.6598 78.5754 42.532 78.7564 45.2784 78.7021C47.4495 78.6659 47.8021 78.6116 48.7485 78.1771ZM52.4227 66.4451H37.5773V72.9629H52.4227V66.4451ZM57.6371 64.4717C58.3979 63.7293 58.3979 62.6431 57.6371 61.9007L57.099 61.3757H32.901L32.3629 61.9007C31.9361 62.3172 31.8247 62.5887 31.8247 63.1862C31.8247 63.7837 31.9361 64.0552 32.3629 64.4717L32.901 64.9967H57.099L57.6371 64.4717ZM54.7794 54.4053L56.3381 48.7928L51.1237 39.3782C48.2474 34.2002 45.8351 29.8912 45.7423 29.8007C45.6124 29.674 45.5567 31.9371 45.5567 35.9926C45.5567 41.6051 45.5938 42.3655 45.8351 42.3655C46.3732 42.3655 47.5237 43.0535 48.2103 43.7958C49.3052 44.9907 49.565 46.6745 48.8784 48.1591C48.3773 49.2454 47.8763 49.7523 46.7629 50.2593C44.1464 51.4723 41.1959 49.8972 40.6577 47.0185C40.3423 45.3166 41.7897 43.0354 43.4969 42.5285L44.2577 42.3112V29.6016L43.7196 30.5068C41.7711 33.8743 33.6804 48.6841 33.6804 48.9014C33.6804 49.0462 34.1072 50.6576 34.6268 52.5043C35.7773 56.6684 36.6495 59.873 36.6495 60.0178C36.6495 60.0721 40.3794 60.0903 44.9443 60.0721L53.2392 60.0178L54.7794 54.4053ZM33.1423 51.8163C32.2887 48.7385 32.2701 48.5755 32.6969 47.8332L33.0124 47.2901L31.9918 46.1857C29.2268 43.2165 27.4825 38.2014 27.8351 34.2183C28.4845 26.8677 33.5691 20.8931 40.8247 18.9921C42.7732 18.467 46.8557 18.4127 48.7485 18.8834C55.4103 20.5129 60.1794 25.1477 61.8309 31.6474C62.3134 33.5303 62.2577 37.3143 61.7381 39.2877C61.1443 41.4422 59.734 44.176 58.268 45.9322C57.0433 47.4168 57.0433 47.4168 57.3402 47.9599C57.4887 48.2677 57.6186 48.6117 57.6186 48.7385C57.6186 48.8652 57.2845 50.2593 56.8577 51.8344C56.4309 53.3914 56.1155 54.7312 56.1897 54.7855C56.5052 55.1114 63.7423 51.2913 69.2165 47.8875C73.3732 45.2985 88.2371 35.4676 88.2371 35.2865C88.2371 35.2141 85.7876 33.5122 82.7814 31.5207C70.3113 23.2467 65.4866 20.2413 60.866 17.8877C46.0763 10.4284 38.3196 11.5509 18.6495 24.0796C13.899 27.1031 1.87423 35.1055 1.81856 35.2684C1.78144 35.4132 4.47216 37.2237 14.1031 43.5242C20.8577 47.96 23.7711 49.7523 27.6309 51.8525C30.6186 53.482 33.7546 54.9122 33.8289 54.695C33.866 54.6045 33.5505 53.3009 33.1423 51.8163ZM46.633 48.9376C47.8763 48.0324 48.3031 46.4753 47.6907 45.1899C46.3732 42.4742 42.0309 43.3975 42.0309 46.3848C42.0309 47.6884 42.7361 48.7566 43.8866 49.2273C44.5732 49.517 46.0577 49.354 46.633 48.9376ZM57.7299 44.6468C63.7794 36.8073 60.9217 25.4736 51.8474 21.2733C49.5093 20.2051 47.8763 19.8611 45 19.8611C41.9938 19.8611 40.3979 20.2232 37.8557 21.4543C34.7381 22.9752 32.3443 25.3107 30.8041 28.3342C29.5423 30.8146 29.1711 32.3716 29.1711 35.3046C29.1711 38.1652 29.5423 39.7584 30.7113 42.0758C31.5278 43.7415 33.2351 46.0408 33.5691 45.9322C33.6804 45.896 36.1856 41.4965 39.1546 36.1555C42.1052 30.8146 44.6474 26.397 44.7959 26.3427C44.9443 26.2884 45.2041 26.3789 45.3897 26.5599C45.5567 26.741 48.099 31.231 51.0309 36.5357C55.4289 44.4838 56.4124 46.1314 56.6165 45.9684C56.7649 45.8417 57.266 45.2623 57.7299 44.6468Z" fill="#1A2B4C"/>
<path d="M26.7402 10.1026C26.5918 9.86719 25.9608 8.8352 25.3485 7.80322C24.4392 6.28241 24.2722 5.84789 24.4206 5.57632C24.8289 4.83402 25.3299 5.26853 26.666 7.49544C27.4082 8.74468 27.9278 9.81287 27.8907 10.0301C27.8165 10.5733 27.0928 10.6276 26.7402 10.1026Z" fill="#1A2B4C"/>
<path d="M62.1278 10.1931C61.9979 9.88529 62.4247 9.05246 63.9464 6.48156C64.7258 5.19611 65.2268 4.92454 65.5794 5.59442C65.7278 5.866 65.5237 6.33672 64.5588 7.98427C63.8907 9.10678 63.2598 10.1388 63.1485 10.2655C62.8701 10.5914 62.2763 10.5552 62.1278 10.1931Z" fill="#1A2B4C"/>
<path d="M44.4433 5.63063C44.3505 5.43148 44.2577 4.23655 44.2577 2.98731C44.2577 0.597463 44.4062 0 45 0C45.5938 0 45.7423 0.597463 45.7423 2.98731C45.7423 5.37716 45.5938 5.97463 45 5.97463C44.7959 5.97463 44.5546 5.81168 44.4433 5.63063Z" fill="#1A2B4C"/>
<path d="M41.8825 79.7341C39.8227 79.2091 37.967 77.6701 36.9649 75.6786L36.3711 74.5199L36.2598 66.4451H35.1093C32.7897 66.427 31.7876 66.0287 30.934 64.7975C30.5629 64.2725 30.5072 64.0009 30.5629 63.0776C30.6928 61.086 31.8804 60.1084 34.1258 60.1084H35.3505L35.2392 59.6195C35.1649 59.3298 34.9237 58.5151 34.7196 57.7909L34.3299 56.4512L33.2165 56.0166C28.132 53.9889 21.3588 49.9696 7.05155 40.4283C1.13196 36.4814 0 35.6667 0 35.3046C0 34.8339 0.797939 34.2726 12.8969 26.3427C21.7299 20.5491 24.8845 18.6481 29.5052 16.385C39.2474 11.569 45.3897 10.8267 53.6474 13.4882C59.1588 15.2625 64.967 18.3946 75.8969 25.5279C87.7732 33.2769 90 34.8158 90 35.3046C90 35.6848 89.3876 36.1736 85.8247 38.5273C73.1505 46.9823 67.4907 50.5671 63 53.0112C60.4577 54.3872 56.3567 56.3063 55.9485 56.3063C55.8557 56.3063 55.7072 56.4512 55.6144 56.6322C55.4289 56.9581 54.6495 59.6376 54.6495 59.9273C54.6495 60.0359 55.1876 60.1084 55.8557 60.1084C57.3031 60.1084 58.3052 60.5248 58.9546 61.4119C59.2887 61.9008 59.3814 62.2447 59.3814 63.2043C59.3814 64.2182 59.3072 64.4897 58.8619 65.051C58.101 66.0287 57.4515 66.2821 55.466 66.3908L53.7217 66.4994V70.0661C53.7217 73.8862 53.5546 74.8639 52.6825 76.3123C51.699 77.9417 49.6763 79.4082 47.7835 79.8246C46.5773 80.0962 43.033 80.0419 41.8825 79.7341ZM48.7485 78.1771C50.0289 77.5977 51.2722 76.4209 51.8289 75.2803C52.0515 74.8096 52.2371 74.375 52.2371 74.3207C52.2371 74.2664 48.9897 74.2302 45.0186 74.2302H37.7814L37.9856 74.7915C38.3196 75.7329 39.3216 77.0003 40.2495 77.6158C41.6598 78.5754 42.532 78.7564 45.2784 78.7021C47.4495 78.6659 47.8021 78.6116 48.7485 78.1771ZM52.4227 66.4451H37.5773V72.9629H52.4227V66.4451ZM57.6371 64.4717C58.3979 63.7293 58.3979 62.6431 57.6371 61.9007L57.099 61.3757H32.901L32.3629 61.9007C31.9361 62.3172 31.8247 62.5887 31.8247 63.1862C31.8247 63.7837 31.9361 64.0552 32.3629 64.4717L32.901 64.9967H57.099L57.6371 64.4717ZM54.7794 54.4053L56.3381 48.7928L51.1237 39.3782C48.2474 34.2002 45.8351 29.8912 45.7423 29.8007C45.6124 29.674 45.5567 31.9371 45.5567 35.9926C45.5567 41.6051 45.5938 42.3655 45.8351 42.3655C46.3732 42.3655 47.5237 43.0535 48.2103 43.7958C49.3052 44.9907 49.565 46.6745 48.8784 48.1591C48.3773 49.2454 47.8763 49.7523 46.7629 50.2593C44.1464 51.4723 41.1959 49.8972 40.6577 47.0185C40.3423 45.3166 41.7897 43.0354 43.4969 42.5285L44.2577 42.3112V29.6016L43.7196 30.5068C41.7711 33.8743 33.6804 48.6841 33.6804 48.9014C33.6804 49.0462 34.1072 50.6576 34.6268 52.5043C35.7773 56.6684 36.6495 59.873 36.6495 60.0178C36.6495 60.0721 40.3794 60.0903 44.9443 60.0721L53.2392 60.0178L54.7794 54.4053ZM33.1423 51.8163C32.2887 48.7385 32.2701 48.5755 32.6969 47.8332L33.0124 47.2901L31.9918 46.1857C29.2268 43.2165 27.4825 38.2014 27.8351 34.2183C28.4845 26.8677 33.5691 20.8931 40.8247 18.9921C42.7732 18.467 46.8557 18.4127 48.7485 18.8834C55.4103 20.5129 60.1794 25.1477 61.8309 31.6474C62.3134 33.5303 62.2577 37.3143 61.7381 39.2877C61.1443 41.4422 59.734 44.176 58.268 45.9322C57.0433 47.4168 57.0433 47.4168 57.3402 47.9599C57.4887 48.2677 57.6186 48.6117 57.6186 48.7385C57.6186 48.8652 57.2845 50.2593 56.8577 51.8344C56.4309 53.3914 56.1155 54.7312 56.1897 54.7855C56.5052 55.1114 63.7423 51.2913 69.2165 47.8875C73.3732 45.2985 88.2371 35.4676 88.2371 35.2865C88.2371 35.2141 85.7876 33.5122 82.7814 31.5207C70.3113 23.2467 65.4866 20.2413 60.866 17.8877C46.0763 10.4284 38.3196 11.5509 18.6495 24.0796C13.899 27.1031 1.87423 35.1055 1.81856 35.2684C1.78144 35.4132 4.47216 37.2237 14.1031 43.5242C20.8577 47.96 23.7711 49.7523 27.6309 51.8525C30.6186 53.482 33.7546 54.9122 33.8289 54.695C33.866 54.6045 33.5505 53.3009 33.1423 51.8163ZM46.633 48.9376C47.8763 48.0324 48.3031 46.4753 47.6907 45.1899C46.3732 42.4742 42.0309 43.3975 42.0309 46.3848C42.0309 47.6884 42.7361 48.7566 43.8866 49.2273C44.5732 49.517 46.0577 49.354 46.633 48.9376ZM57.7299 44.6468C63.7794 36.8073 60.9217 25.4736 51.8474 21.2733C49.5093 20.2051 47.8763 19.8611 45 19.8611C41.9938 19.8611 40.3979 20.2232 37.8557 21.4543C34.7381 22.9752 32.3443 25.3107 30.8041 28.3342C29.5423 30.8146 29.1711 32.3716 29.1711 35.3046C29.1711 38.1652 29.5423 39.7584 30.7113 42.0758C31.5278 43.7415 33.2351 46.0408 33.5691 45.9322C33.6804 45.896 36.1856 41.4965 39.1546 36.1555C42.1052 30.8146 44.6474 26.397 44.7959 26.3427C44.9443 26.2884 45.2041 26.3789 45.3897 26.5599C45.5567 26.741 48.099 31.231 51.0309 36.5357C55.4289 44.4838 56.4124 46.1314 56.6165 45.9684C56.7649 45.8417 57.266 45.2623 57.7299 44.6468Z" stroke="#1A2B4C" stroke-width="2" mask="url(#path-1-inside-1_3494_3)"/>
<path d="M26.7402 10.1026C26.5918 9.86719 25.9608 8.8352 25.3485 7.80322C24.4392 6.28241 24.2722 5.84789 24.4206 5.57632C24.8289 4.83402 25.3299 5.26853 26.666 7.49544C27.4082 8.74468 27.9278 9.81287 27.8907 10.0301C27.8165 10.5733 27.0928 10.6276 26.7402 10.1026Z" stroke="#1A2B4C" stroke-width="2" mask="url(#path-1-inside-1_3494_3)"/>
<path d="M62.1278 10.1931C61.9979 9.88529 62.4247 9.05246 63.9464 6.48156C64.7258 5.19611 65.2268 4.92454 65.5794 5.59442C65.7278 5.866 65.5237 6.33672 64.5588 7.98427C63.8907 9.10678 63.2598 10.1388 63.1485 10.2655C62.8701 10.5914 62.2763 10.5552 62.1278 10.1931Z" stroke="#1A2B4C" stroke-width="2" mask="url(#path-1-inside-1_3494_3)"/>
<path d="M44.4433 5.63063C44.3505 5.43148 44.2577 4.23655 44.2577 2.98731C44.2577 0.597463 44.4062 0 45 0C45.5938 0 45.7423 0.597463 45.7423 2.98731C45.7423 5.37716 45.5938 5.97463 45 5.97463C44.7959 5.97463 44.5546 5.81168 44.4433 5.63063Z" stroke="#1A2B4C" stroke-width="2" mask="url(#path-1-inside-1_3494_3)"/>
</svg>
