<svg width="70" height="80" viewBox="0 0 70 80" fill="none" xmlns="http://www.w3.org/2000/svg">
<path d="M67.9806 34.4165H2.01402V30.5138C2.01402 30.2537 2.52558 29.9935 3.23102 29.6605C4.19494 29.213 5.38507 28.651 5.61663 27.3605C7.67371 15.7461 16.6936 6.81146 28.1476 4.22528V21.9071C28.1476 22.4431 28.5999 22.8802 29.1546 22.8802C29.7146 22.8802 30.1669 22.4431 30.1669 21.9071V1.95135H39.8331V21.9071C39.8331 22.4431 40.2854 22.8802 40.8401 22.8802C41.4001 22.8802 41.8524 22.4431 41.8524 21.9071V4.22528C53.301 6.81146 62.3263 15.7461 64.3834 27.3605C64.615 28.651 65.8051 29.213 66.769 29.6605C67.4744 29.9935 67.9806 30.2537 67.9806 30.5138V34.4165ZM60.5923 53.316C60.5923 66.9546 49.1115 78.0487 34.9973 78.0487C20.8885 78.0487 9.40765 66.9546 9.40765 53.316V36.3679H60.5923V53.316ZM67.6467 27.9069C67.0759 27.6363 66.4243 27.3345 66.3705 27.0327C64.1465 14.4712 54.2972 4.8445 41.8524 2.22189V0.973031C41.8524 0.437061 41.4001 0 40.8401 0H29.1546C28.5999 0 28.1476 0.437061 28.1476 0.973031V2.22189C15.7028 4.8445 5.85357 14.4712 3.62417 27.0327C3.57032 27.3345 2.92408 27.6363 2.35327 27.9069C1.35704 28.37 0 29.01 0 30.5138V35.3896C0 35.9308 0.446968 36.3679 1.00701 36.3679H7.38291V53.316C7.38291 68.0317 19.7738 80 34.9973 80C50.2262 80 62.6171 68.0317 62.6171 53.316V36.3679H68.993C69.5476 36.3679 70 35.9308 70 35.3896V30.5138C70 29.01 68.6376 28.37 67.6467 27.9069Z" fill="#1A2B4C"/>
<path d="M15.0191 41.7515C15.0191 41.6439 15.1094 41.5567 15.2208 41.5567H30.0491C30.1605 41.5567 30.2507 41.6439 30.2507 41.7515V48.9492C30.2507 49.0568 30.1605 49.144 30.0491 49.144H15.2208C15.1094 49.144 15.0191 49.0568 15.0191 48.9492V41.7515ZM39.7525 41.7515C39.7525 41.6439 39.8426 41.5567 39.9541 41.5567H54.7824C54.8938 41.5567 54.984 41.6439 54.984 41.7515V48.9492C54.984 49.0568 54.8938 49.144 54.7824 49.144H39.9541C39.8426 49.144 39.7525 49.0568 39.7525 48.9492V41.7515ZM15.2208 51.0972H30.0491C31.2746 51.0972 32.272 50.1334 32.272 48.9492V43.997C33.853 42.7307 36.1502 42.7358 37.7312 43.997V48.9492C37.7312 50.1334 38.7285 51.0972 39.9541 51.0972H54.7824C56.0079 51.0972 57.0053 50.1334 57.0053 48.9492V41.7515C57.0053 40.5673 56.0079 39.6035 54.7824 39.6035H39.9541C38.7391 39.6035 37.7577 40.5416 37.7312 41.7054C36.0122 40.9056 33.9909 40.9056 32.272 41.7054C32.2455 40.5416 31.264 39.6035 30.0491 39.6035H15.2208C13.9952 39.6035 12.9978 40.5673 12.9978 41.7515V48.9492C12.9978 50.1334 13.9952 51.0972 15.2208 51.0972Z" fill="#1A2B4C"/>
<path d="M42.1795 63.9077C40.0425 65.2659 37.5555 65.9828 35.0006 65.9828C32.4404 65.9828 29.9638 65.2659 27.8216 63.9077C27.3566 63.6099 26.7349 63.7361 26.4266 64.1854C26.1235 64.6348 26.2489 65.2406 26.714 65.5385C29.1853 67.1036 32.0485 67.9316 35.0006 67.9316C37.9526 67.9316 40.821 67.1036 43.2923 65.5385C43.7573 65.2406 43.888 64.6348 43.5745 64.1854C43.2715 63.7361 42.6497 63.6099 42.1795 63.9077Z" fill="#1A2B4C"/>
</svg>
