<svg width="32" height="32" viewBox="0 0 32 32" fill="none" xmlns="http://www.w3.org/2000/svg">
<path d="M16.9255 29.0995L10.6164 11.7633C11.2283 11.5981 11.7709 11.2656 12.1911 10.8127L18.6206 28.4815C18.7919 28.9486 18.5492 29.4687 18.082 29.638C17.6149 29.8094 17.0948 29.5666 16.9255 29.0995ZM10.1574 21.9459V21.3442C10.1574 21.1178 9.97384 20.9342 9.74743 20.9342C9.52101 20.9342 9.33741 21.1178 9.33741 21.3442V21.9459H6.04722L9.71071 11.8795C9.72295 11.8795 9.73519 11.8816 9.74743 11.8816C9.75966 11.8816 9.7719 11.8795 9.78414 11.8795L13.4476 21.9459H10.1574ZM2.57142 29.0995C2.40008 29.5666 1.88196 29.8094 1.41485 29.638C0.945695 29.4687 0.704999 28.9486 0.874302 28.4815L7.30578 10.8148C7.72598 11.2656 8.26857 11.5981 8.88051 11.7633L2.57142 29.0995ZM7.22419 5.61124H12.2727V8.53632C12.2727 9.92746 11.1406 11.0616 9.74743 11.0616C8.35628 11.0616 7.22419 9.92746 7.22419 8.53632V5.61124ZM8.84583 0.819759H10.6511V4.7892H8.84583V0.819759ZM19.3916 28.2L17.415 22.766H18.2044C18.4308 22.766 18.6144 22.5824 18.6144 22.356C18.6144 22.1295 18.4308 21.9459 18.2044 21.9459H17.1152L12.7602 9.98049C12.9724 9.54193 13.0927 9.05443 13.0927 8.53632V5.19919C13.0927 4.97278 12.9091 4.7892 12.6827 4.7892H11.4711V0.409748C11.4711 0.18333 11.2875 -0.000244141 11.061 -0.000244141H8.43584C8.20942 -0.000244141 8.02583 0.18333 8.02583 0.409748V4.7892H6.8142C6.58574 4.7892 6.40216 4.97278 6.40216 5.19919V8.53632C6.40216 9.05443 6.52454 9.54193 6.73464 9.98049L2.37967 21.9459H1.29041C1.06399 21.9459 0.880417 22.1295 0.880417 22.356C0.880417 22.5824 1.06399 22.766 1.29041 22.766H2.08187L0.103262 28.2C-0.172111 28.9608 0.12162 29.789 0.766197 30.2214L0.319473 31.4494C0.24196 31.6615 0.35007 31.8961 0.564249 31.9736C0.609124 31.992 0.658087 31.9981 0.705003 31.9981C0.872266 31.9981 1.02932 31.8961 1.09051 31.7288L1.53724 30.5029C1.59843 30.509 1.65962 30.5131 1.72082 30.5131C2.42455 30.5131 3.08748 30.0786 3.34246 29.379L5.74942 22.766H9.33741V23.3677C9.33741 23.5941 9.52101 23.7777 9.74743 23.7777C9.97384 23.7777 10.1574 23.5941 10.1574 23.3677V22.766H13.7475L16.1544 29.379C16.4094 30.0786 17.0703 30.5131 17.774 30.5131C17.8373 30.5131 17.8985 30.509 17.9596 30.5029L18.4064 31.7288C18.4676 31.8961 18.6246 31.9981 18.7919 31.9981C18.8388 31.9981 18.8857 31.992 18.9326 31.9736C19.1448 31.8961 19.2549 31.6615 19.1774 31.4494L18.7307 30.2214C19.3732 29.789 19.669 28.9608 19.3916 28.2Z" fill="#C03951"/>
<path d="M9.74793 9.276C10.1559 9.276 10.4863 8.94555 10.4863 8.53759C10.4863 8.12963 10.1559 7.79918 9.74793 7.79918C9.34201 7.79918 9.00952 8.12963 9.00952 8.53759C9.00952 8.94555 9.34201 9.276 9.74793 9.276Z" fill="#C03951"/>
<path d="M31.1781 30.522H29.8237V0.82048H31.1781V30.522ZM31.5881 0.000476462H29.4137C29.1852 0.000476462 29.0016 0.18405 29.0016 0.410468V30.932C29.0016 31.1604 29.1852 31.344 29.4137 31.344H31.5881C31.8145 31.344 32.0001 31.1604 32.0001 30.932V0.410468C32.0001 0.18405 31.8145 0.000476462 31.5881 0.000476462Z" fill="#C03951"/>
<path d="M26.9429 0.000177088H25.3376C25.1112 0.000177088 24.9276 0.183751 24.9276 0.410169C24.9276 0.636587 25.1112 0.820181 25.3376 0.820181H26.9429C27.1693 0.820181 27.3529 0.636587 27.3529 0.410169C27.3529 0.183751 27.1693 0.000177088 26.9429 0.000177088Z" fill="#C03951"/>
<path d="M23.2106 0.000177088H21.6033C21.3769 0.000177088 21.1933 0.183751 21.1933 0.410169C21.1933 0.636587 21.3769 0.820181 21.6033 0.820181H23.2106C23.437 0.820181 23.6206 0.636587 23.6206 0.410169C23.6206 0.183751 23.437 0.000177088 23.2106 0.000177088Z" fill="#C03951"/>
<path d="M19.477 0.000177088H17.8696C17.6432 0.000177088 17.4596 0.183751 17.4596 0.410169C17.4596 0.636587 17.6432 0.820181 17.8696 0.820181H19.477C19.7034 0.820181 19.887 0.636587 19.887 0.410169C19.887 0.183751 19.7034 0.000177088 19.477 0.000177088Z" fill="#C03951"/>
<path d="M14.1372 0.820181H15.7446C15.971 0.820181 16.1546 0.636587 16.1546 0.410169C16.1546 0.183751 15.971 0.000177088 15.7446 0.000177088H14.1372C13.9108 0.000177088 13.7272 0.183751 13.7272 0.410169C13.7272 0.636587 13.9108 0.820181 14.1372 0.820181Z" fill="#C03951"/>
<path d="M26.9429 15.2621H25.3376C25.1112 15.2621 24.9276 15.4457 24.9276 15.6721C24.9276 15.8985 25.1112 16.0821 25.3376 16.0821H26.9429C27.1693 16.0821 27.3529 15.8985 27.3529 15.6721C27.3529 15.4457 27.1693 15.2621 26.9429 15.2621Z" fill="#C03951"/>
<path d="M23.2106 15.2621H21.6033C21.3769 15.2621 21.1933 15.4457 21.1933 15.6721C21.1933 15.8985 21.3769 16.0821 21.6033 16.0821H23.2106C23.437 16.0821 23.6206 15.8985 23.6206 15.6721C23.6206 15.4457 23.437 15.2621 23.2106 15.2621Z" fill="#C03951"/>
<path d="M19.477 15.2621H17.8696C17.6432 15.2621 17.4596 15.4457 17.4596 15.6721C17.4596 15.8985 17.6432 16.0821 17.8696 16.0821H19.477C19.7034 16.0821 19.887 15.8985 19.887 15.6721C19.887 15.4457 19.7034 15.2621 19.477 15.2621Z" fill="#C03951"/>
<path d="M26.9429 30.522H25.3376C25.1112 30.522 24.9276 30.7056 24.9276 30.932C24.9276 31.1604 25.1112 31.344 25.3376 31.344H26.9429C27.1693 31.344 27.3529 31.1604 27.3529 30.932C27.3529 30.7056 27.1693 30.522 26.9429 30.522Z" fill="#C03951"/>
<path d="M23.2106 30.522H21.6033C21.3769 30.522 21.1933 30.7056 21.1933 30.932C21.1933 31.1604 21.3769 31.344 21.6033 31.344H23.2106C23.437 31.344 23.6206 31.1604 23.6206 30.932C23.6206 30.7056 23.437 30.522 23.2106 30.522Z" fill="#C03951"/>
</svg>
