<svg width="32" height="32" viewBox="0 0 32 32" fill="none" xmlns="http://www.w3.org/2000/svg">
<path d="M3.1505 27.7706C3.1505 27.176 3.63399 26.6927 4.22846 26.6927C4.82273 26.6927 5.30621 27.176 5.30621 27.7706C5.30621 28.3653 4.82273 28.8486 4.22846 28.8486C3.63399 28.8486 3.1505 28.3653 3.1505 27.7706ZM6.10613 27.7706C6.10613 26.7364 5.26385 25.8932 4.22846 25.8932C3.19286 25.8932 2.35059 26.7364 2.35059 27.7706C2.35059 28.8068 3.19286 29.6481 4.22846 29.6481C5.26385 29.6481 6.10613 28.8068 6.10613 27.7706Z" fill="#C03951"/>
<path d="M27.7713 23.542C26.3612 23.542 25.1112 24.2361 24.3425 25.3001V4.22828C24.3425 2.33689 25.8805 0.799521 27.7713 0.799521C29.6617 0.799521 31.1999 2.33689 31.1999 4.22828V25.3001C30.4312 24.2361 29.181 23.542 27.7713 23.542ZM27.7713 31.1991C25.8805 31.1991 24.3425 29.6617 24.3425 27.7703C24.3425 25.8809 25.8805 24.3415 27.7713 24.3415C29.6617 24.3415 31.1999 25.8809 31.1999 27.7703C31.1999 29.6617 29.6617 31.1991 27.7713 31.1991ZM6.69924 31.1991C7.76308 30.4314 8.45739 29.1804 8.45739 27.7703V7.00473H23.5424V27.7703C23.5424 29.1804 24.2367 30.4314 25.3006 31.1991H6.69924ZM0.79992 27.7703C0.79992 25.8809 2.33809 24.3415 4.22869 24.3415C6.1193 24.3415 7.65727 25.8809 7.65727 27.7703C7.65727 29.6617 6.1193 31.1991 4.22869 31.1991C2.33809 31.1991 0.79992 29.6617 0.79992 27.7703ZM0.79992 4.22828C0.79992 2.33689 2.33809 0.799521 4.22869 0.799521C6.1193 0.799521 7.65727 2.33689 7.65727 4.22828V25.3001C6.88858 24.2361 5.63839 23.542 4.22869 23.542C2.8188 23.542 1.56861 24.2361 0.79992 25.3001V4.22828ZM27.7713 0C25.4394 0 23.5424 1.89735 23.5424 4.22828V6.20323H8.45739V4.22828C8.45739 1.89735 6.56042 0 4.22869 0C1.89677 0 0 1.89735 0 4.22828V27.7703C0 30.1032 1.89677 31.9986 4.22869 31.9986H27.7713C30.103 31.9986 32 30.1032 32 27.7703V4.22828C32 1.89735 30.103 0 27.7713 0Z" fill="#C03951"/>
<path d="M14.1705 10.0887H17.83C18.0509 10.0887 18.2299 9.90965 18.2299 9.68889C18.2299 9.46812 18.0509 9.28914 17.83 9.28914H14.1705C13.9495 9.28914 13.7705 9.46812 13.7705 9.68889C13.7705 9.90965 13.9495 10.0887 14.1705 10.0887Z" fill="#C03951"/>
<path d="M21.315 12.3721H10.6846C10.4636 12.3721 10.2846 12.5511 10.2846 12.7719C10.2846 12.9926 10.4636 13.1716 10.6846 13.1716H15.5998V17.5869H10.6846C10.4636 17.5869 10.2846 17.7659 10.2846 17.9866C10.2846 18.2074 10.4636 18.3864 10.6846 18.3864H18.8285C19.0495 18.3864 19.2285 18.2074 19.2285 17.9866C19.2285 17.7659 19.0495 17.5869 18.8285 17.5869H16.3997V13.1716H21.315C21.5359 13.1716 21.7149 12.9926 21.7149 12.7719C21.7149 12.5511 21.5359 12.3721 21.315 12.3721Z" fill="#C03951"/>
<path d="M21.315 22.7735H16.3997V20.9656C16.3997 20.7449 16.2207 20.5659 15.9998 20.5659C15.7788 20.5659 15.5998 20.7449 15.5998 20.9656V22.7735H10.6846C10.4636 22.7735 10.2846 22.9525 10.2846 23.1733C10.2846 23.394 10.4636 23.573 10.6846 23.573H21.315C21.5359 23.573 21.7149 23.394 21.7149 23.1733C21.7149 22.9525 21.5359 22.7735 21.315 22.7735Z" fill="#C03951"/>
<path d="M12.032 27.0502C11.6351 27.0502 11.3121 27.3744 11.3121 27.7702C11.3121 28.1679 11.6351 28.4901 12.032 28.4901C12.429 28.4901 12.752 28.1679 12.752 27.7702C12.752 27.3744 12.429 27.0502 12.032 27.0502Z" fill="#C03951"/>
<path d="M15.0854 27.0502C14.6882 27.0502 14.3652 27.3744 14.3652 27.7702C14.3652 28.1679 14.6882 28.4901 15.0854 28.4901C15.4824 28.4901 15.8054 28.1679 15.8054 27.7702C15.8054 27.3744 15.4824 27.0502 15.0854 27.0502Z" fill="#C03951"/>
<path d="M21.3149 27.3705H17.7392C17.5182 27.3705 17.3392 27.5495 17.3392 27.7703C17.3392 27.991 17.5182 28.17 17.7392 28.17H21.3149C21.5359 28.17 21.7149 27.991 21.7149 27.7703C21.7149 27.5495 21.5359 27.3705 21.3149 27.3705Z" fill="#C03951"/>
<path d="M27.7708 28.8486C27.1763 28.8486 26.6928 28.3653 26.6928 27.7706C26.6928 27.176 27.1763 26.6927 27.7708 26.6927C28.365 26.6927 28.8485 27.176 28.8485 27.7706C28.8485 28.3653 28.365 28.8486 27.7708 28.8486ZM27.7708 25.8932C26.7352 25.8932 25.8927 26.7364 25.8927 27.7706C25.8927 28.8068 26.7352 29.6481 27.7708 29.6481C28.8062 29.6481 29.6484 28.8068 29.6484 27.7706C29.6484 26.7364 28.8062 25.8932 27.7708 25.8932Z" fill="#C03951"/>
</svg>
