<svg width="32" height="32" viewBox="0 0 32 32" fill="none" xmlns="http://www.w3.org/2000/svg">
<path d="M0.740366 6.41205L10.42 1.00226V25.5918L0.740366 30.9996V6.41205ZM31.8173 0.0515377C31.7034 -0.0152497 31.5639 -0.0152535 31.45 0.0476052L27.5547 2.22408C27.376 2.32427 27.3111 2.55017 27.4113 2.72892C27.5115 2.90768 27.7374 2.97054 27.9162 2.87036L31.2594 1.00226V25.5918L21.5812 30.9996V15.6758C21.5812 15.4716 21.4142 15.3066 21.2099 15.3066C21.0056 15.3066 20.8406 15.4716 20.8406 15.6758V30.9996L11.1604 25.5918V1.00226L14.5056 2.87232C14.6844 2.97053 14.9103 2.90768 15.0085 2.72892C15.1087 2.55017 15.0458 2.32428 14.8671 2.22606L10.9708 0.0476052C10.859 -0.0152535 10.7239 -0.0132892 10.6121 0.0476052C10.6111 0.0495696 0.189566 5.87186 0.189566 5.87186C0.0724916 5.93668 0 6.06044 0 6.19402V31.6322C0 31.7638 0.069529 31.8836 0.182871 31.9504C0.240623 31.9838 0.305451 32.0014 0.370078 32.0014C0.432347 32.0014 0.49462 31.9857 0.5508 31.9543L10.7903 26.2322L21.0292 31.9543C21.0862 31.9857 21.149 32.0014 21.2099 32.0014C21.2728 32.0014 21.3337 31.9857 21.3906 31.9543L31.8114 26.132C31.9273 26.0652 32 25.9415 32 25.8079V0.371721C32 0.24011 31.9313 0.118325 31.8173 0.0515377Z" fill="#C03951"/>
<path d="M21.2103 0.740314C23.6068 0.740314 25.5574 2.69089 25.5574 5.08738C25.5574 8.43854 22.1316 11.5304 21.2103 12.3004C20.291 11.5304 16.8633 8.43854 16.8633 5.08738C16.8633 2.69089 18.8139 0.740314 21.2103 0.740314ZM20.9864 13.0704C21.0532 13.1215 21.1318 13.1471 21.2103 13.1471C21.2909 13.1471 21.3695 13.1215 21.4362 13.0704C21.6346 12.9192 26.298 9.30678 26.298 5.08738C26.298 2.28231 24.0154 -0.000244141 21.2103 -0.000244141C18.4053 -0.000244141 16.1227 2.28231 16.1227 5.08738C16.1227 9.30678 20.788 12.9192 20.9864 13.0704Z" fill="#C03951"/>
<path d="M19.4652 5.08862C19.4652 4.12609 20.247 3.34429 21.2095 3.34429C22.172 3.34429 22.9538 4.12609 22.9538 5.08862C22.9538 6.05114 22.172 6.83296 21.2095 6.83296C20.247 6.83296 19.4652 6.05114 19.4652 5.08862ZM23.6944 5.08862C23.6944 3.71751 22.5806 2.60373 21.2095 2.60373C19.8404 2.60373 18.7246 3.71751 18.7246 5.08862C18.7246 6.45972 19.8404 7.5735 21.2095 7.5735C22.5806 7.5735 23.6944 6.45972 23.6944 5.08862Z" fill="#C03951"/>
</svg>
