<svg width="32" height="32" viewBox="0 0 32 32" fill="none" xmlns="http://www.w3.org/2000/svg">
<path d="M3.44519 21.393H6.38039C6.60681 21.393 6.7904 21.2094 6.7904 20.983V18.3558C6.7904 18.1293 6.60681 17.9458 6.38039 17.9458H3.44519V8.98101H13.232V17.9458H10.6578C10.4314 17.9458 10.2478 18.1293 10.2478 18.3558V20.983C10.2478 21.2094 10.4314 21.393 10.6578 21.393H17.0504V28.5525H3.44519V21.393ZM23.0187 17.9458H14.054V8.98101H23.0187V17.9458ZM23.0187 28.5525H17.8704V21.393H23.0187V28.5525ZM3.03518 29.3746H23.4288C23.6552 29.3746 23.8408 29.191 23.8408 28.9625V20.983C23.8408 20.7545 23.6552 20.5709 23.4288 20.5709H11.0678V18.7678H23.4288C23.6552 18.7678 23.8408 18.5842 23.8408 18.3558V8.56898C23.8408 8.34256 23.6552 8.15898 23.4288 8.15898H3.03518C2.80877 8.15898 2.6252 8.34256 2.6252 8.56898V18.3558C2.6252 18.5842 2.80877 18.7678 3.03518 18.7678H5.96838V20.5709H3.03518C2.80877 20.5709 2.6252 20.7545 2.6252 20.983V28.9625C2.6252 29.191 2.80877 29.3746 3.03518 29.3746Z" fill="#C03951"/>
<path d="M25.6439 31.1798H0.819989V6.3538H25.6439V31.1798ZM26.056 5.53383H0.410004C0.183591 5.53383 0 5.7174 0 5.94381V31.5898C0 31.8162 0.183591 31.9998 0.410004 31.9998H26.056C26.2824 31.9998 26.4659 31.8162 26.4659 31.5898V5.94381C26.4659 5.7174 26.2824 5.53383 26.056 5.53383Z" fill="#C03951"/>
<path d="M0.410004 2.18075C0.636418 2.18075 0.819989 1.99718 0.819989 1.77076V0.822275H6.40894V1.77076C6.40894 1.99718 6.59251 2.18075 6.81892 2.18075C7.04738 2.18075 7.23096 1.99718 7.23096 1.77076V0.822275H12.8199V1.77076C12.8199 1.99718 13.0035 2.18075 13.2299 2.18075C13.4563 2.18075 13.6399 1.99718 13.6399 1.77076V0.822275H19.2289V1.77076C19.2289 1.99718 19.4124 2.18075 19.6388 2.18075C19.8653 2.18075 20.0488 1.99718 20.0488 1.77076V0.822275H25.6378V1.77076C25.6378 1.99718 25.8214 2.18075 26.0478 2.18075C26.2742 2.18075 26.4598 1.99718 26.4598 1.77076V0.410238C26.4598 0.183825 26.2742 0.000244141 26.0478 0.000244141H0.410004C0.183591 0.000244141 0 0.183825 0 0.410238V1.77076C0 1.99718 0.183591 2.18075 0.410004 2.18075Z" fill="#C03951"/>
<path d="M31.5881 5.53808H30.2296C30.0032 5.53808 29.8176 5.72166 29.8176 5.94807C29.8176 6.17448 30.0032 6.35807 30.2296 6.35807H31.1781V11.947H30.2296C30.0032 11.947 29.8176 12.1306 29.8176 12.357C29.8176 12.5834 30.0032 12.767 30.2296 12.767H31.1781V18.356H30.2296C30.0032 18.356 29.8176 18.5395 29.8176 18.768C29.8176 18.9944 30.0032 19.178 30.2296 19.178H31.1781V24.7669H30.2296C30.0032 24.7669 29.8176 24.9505 29.8176 25.1769C29.8176 25.4033 30.0032 25.5869 30.2296 25.5869H31.1781V31.1759H30.2296C30.0032 31.1759 29.8176 31.3594 29.8176 31.5859C29.8176 31.8123 30.0032 31.9959 30.2296 31.9959H31.5881C31.8145 31.9959 32.0002 31.8123 32.0002 31.5859V5.94807C32.0002 5.72166 31.8145 5.53808 31.5881 5.53808Z" fill="#C03951"/>
</svg>
